<?xml version="1.0" encoding="UTF-8" standalone="no"?>
<svg
   xmlns:dc="http://purl.org/dc/elements/1.1/"
   xmlns:cc="http://creativecommons.org/ns#"
   xmlns:rdf="http://www.w3.org/1999/02/22-rdf-syntax-ns#"
   xmlns:svg="http://www.w3.org/2000/svg"
   xmlns="http://www.w3.org/2000/svg"
   xmlns:sodipodi="http://sodipodi.sourceforge.net/DTD/sodipodi-0.dtd"
   xmlns:inkscape="http://www.inkscape.org/namespaces/inkscape"
   version="1.1"
   viewBox="0 0 360.26492 189.84019"
   stroke-miterlimit="10"
   id="svg5204"
   inkscape:version="0.47 r22583"
   width="100%"
   height="100%"
   sodipodi:docname="URIExtensionBlock.svg"
   style="fill:none;stroke:none">
  <metadata
     id="metadata5248">
    <rdf:RDF>
      <cc:Work
         rdf:about="">
        <dc:format>image/svg+xml</dc:format>
        <dc:type
           rdf:resource="http://purl.org/dc/dcmitype/StillImage" />
      </cc:Work>
    </rdf:RDF>
  </metadata>
  <defs
     id="defs5246">
    <inkscape:perspective
       sodipodi:type="inkscape:persp3d"
       inkscape:vp_x="0 : 360 : 1"
       inkscape:vp_y="0 : 1000 : 0"
       inkscape:vp_z="960 : 360 : 1"
       inkscape:persp3d-origin="480 : 240 : 1"
       id="perspective5250" />
  </defs>
  <sodipodi:namedview
     pagecolor="#ffffff"
     bordercolor="#666666"
     borderopacity="1"
     objecttolerance="10"
     gridtolerance="10"
     guidetolerance="10"
     inkscape:pageopacity="0"
     inkscape:pageshadow="2"
     inkscape:window-width="1074"
     inkscape:window-height="818"
     id="namedview5244"
     showgrid="false"
     inkscape:zoom="0.92709556"
     inkscape:cx="142.78498"
     inkscape:cy="13.187161"
     inkscape:window-x="1353"
     inkscape:window-y="63"
     inkscape:window-maximized="0"
     inkscape:current-layer="svg5204" />
  <path
     d="m 3.8313482,5.8750844 353.2283618,0 0,182.3307056 -353.2283618,0 z"
     id="path5206"
     style="fill:#cfe2f3;fill-rule:nonzero;stroke:#073763;stroke-width:2;stroke-linecap:butt;stroke-linejoin:round" />
  <path
     d="m 11.951408,22.781334 2.749997,0 0,7.359374 q 0,1.75 0.10938,2.26563 0.17187,0.84375 0.835936,1.35156 0.664064,0.50781 1.804684,0.50781 1.17188,0 1.76563,-0.48437 0.59375,-0.48438 0.71875,-1.17969 0.125,-0.69531 0.125,-2.30469 l 0,-7.515624 2.73437,0 0,7.140624 q 0,2.4375 -0.21875,3.45313 -0.21875,1.01562 -0.82031,1.71093 -0.60156,0.69532 -1.60156,1.10938 -1,0.41406 -2.60938,0.41406 -1.95312,0 -2.960934,-0.45312 -1.007813,-0.45313 -1.59375,-1.17188 -0.585936,-0.71875 -0.757813,-1.5 -0.28125,-1.17187 -0.28125,-3.453124 l 0,-7.25 z m 13.499997,13.593754 0,-13.593754 5.78125,0 q 2.1875,0 3.17188,0.359374 0.98437,0.359376 1.57812,1.296876 0.59375,0.9375 0.59375,2.15625 0,1.53125 -0.898434,2.523434 -0.898436,0.99219 -2.695316,1.257816 0.89063,0.515624 1.46875,1.140624 0.57813,0.625 1.5625,2.20313 l 1.67188,2.65625 -3.29688,0 -1.98437,-2.95313 q -1.04688,-1.59375 -1.4375,-2.00781 -0.39063,-0.41406 -0.82813,-0.5625 -0.4375,-0.14844 -1.39062,-0.14844 l -0.54688,0 0,5.67188 -2.75,0 z m 2.75,-7.843754 2.03125,0 q 1.96875,0 2.46094,-0.171876 0.49219,-0.171874 0.77344,-0.578124 0.28125,-0.40625 0.28125,-1.015626 0,-0.6875 -0.36719,-1.109374 -0.36719,-0.421876 -1.03906,-0.53125 -0.32813,-0.04688 -2,-0.04688 l -2.14063,0 0,3.453126 z m 10.625,7.843754 0,-13.593754 2.75,0 0,13.593754 -2.75,0 z m 10.45313,0 0,-13.593754 10.09375,0 0,2.296874 -7.34375,0 0,3.015626 6.82812,0 0,2.28125 -6.82812,0 0,3.703124 7.60937,0 0,2.29688 -10.35937,0 z m 11.17187,0 3.5625,-5.07813 -3.40625,-4.78125 3.17188,0 1.75,2.71875 1.82812,-2.71875 3.0625,0 -3.32812,4.67188 3.64062,5.1875 -3.20312,0 -2,-3.04688 -2.03125,3.04688 -3.04688,0 z m 16.14063,-9.85938 0,2.078126 -1.78125,0 0,3.984374 q 0,1.20313 0.0547,1.39844 0.0547,0.19531 0.23437,0.32812 0.17969,0.13282 0.44531,0.13282 0.35938,0 1.04688,-0.25 l 0.21875,2.01562 q -0.90625,0.39063 -2.0625,0.39063 -0.70313,0 -1.26563,-0.23438 -0.5625,-0.23437 -0.82812,-0.60937 -0.26563,-0.375 -0.375,-1.01563 -0.0781,-0.45312 -0.0781,-1.84375 l 0,-4.296874 -1.20312,0 0,-2.078126 1.20312,0 0,-1.953124 2.60938,-1.515626 0,3.46875 1.78125,0 z m 7.40626,6.71875 2.60937,0.4375 q -0.5,1.4375 -1.58594,2.17969 -1.08593,0.74219 -2.71093,0.74219 -2.5625,0 -3.79688,-1.67188 -0.96876,-1.34375 -0.96876,-3.40625 0,-2.4375 1.27345,-3.828124 1.27344,-1.390626 3.24219,-1.390626 2.1875,0 3.46093,1.453126 1.27344,1.453124 1.22657,4.453124 l -6.53125,0 q 0.0156,1.15625 0.625,1.80469 0.60937,0.64844 1.5,0.64844 0.60937,0 1.03125,-0.33594 0.42187,-0.33594 0.625,-1.08594 z m 0.15625,-2.625 q -0.0312,-1.140624 -0.58594,-1.72656 -0.55469,-0.58594 -1.35156,-0.58594 -0.85938,0 -1.40625,0.625 -0.5625,0.609376 -0.54688,1.6875 l 3.89063,0 z m 13.48437,5.76563 -2.60937,0 0,-5.03125 q 0,-1.593754 -0.16407,-2.062504 -0.16406,-0.46875 -0.53906,-0.726566 -0.375,-0.25781 -0.90625,-0.25781 -0.6875,0 -1.22656,0.36719 -0.53906,0.367186 -0.73438,0.98437 -0.19531,0.61719 -0.19531,2.25782 l 0,4.46875 -2.60937,0 0,-9.85938 2.42187,0 0,1.453126 q 1.29688,-1.671876 3.25,-1.671876 0.85938,0 1.57813,0.3125 0.71875,0.3125 1.07812,0.796876 0.35938,0.484374 0.50781,1.09375 0.14844,0.609374 0.14844,1.75 l 0,6.125004 z m 1.51563,-2.8125 2.609375,-0.39063 q 0.17188,0.75 0.67969,1.14844 0.50781,0.39844 1.42969,0.39844 1,0 1.51562,-0.375 0.34375,-0.26563 0.34375,-0.70313 0,-0.29687 -0.1875,-0.48437 -0.1875,-0.1875 -0.875,-0.34375 -3.14062,-0.70313 -4,-1.26563 -1.156255,-0.79687 -1.156255,-2.21875 0,-1.28125 1.007815,-2.15625 1.00782,-0.875 3.13282,-0.875 2.03125,0 3.00781,0.65625 0.97656,0.65625 1.35156,1.953126 l -2.45312,0.453124 q -0.15625,-0.578124 -0.60157,-0.88281 -0.44531,-0.30469 -1.25781,-0.30469 -1.03125,0 -1.46875,0.296876 -0.29687,0.203124 -0.29687,0.515624 0,0.28125 0.25,0.484376 0.35937,0.25 2.4375,0.726564 2.07812,0.47656 2.90625,1.16406 0.82812,0.6875 0.82812,1.9375 0,1.35938 -1.13281,2.32813 -1.13281,0.96875 -3.35156,0.96875 -2.01563,0 -3.1875,-0.8125 -1.171885,-0.8125 -1.531255,-2.21875 z m 11.281255,-8.375004 0,-2.40625 2.60937,0 0,2.40625 -2.60937,0 z m 0,11.187504 0,-9.85938 2.60937,0 0,9.85938 -2.60937,0 z m 4.59375,-5.0625 q 0,-1.29688 0.64062,-2.51563 0.64063,-1.21875 1.8125,-1.859374 1.17188,-0.640626 2.60938,-0.640626 2.25,0 3.67187,1.453126 1.42188,1.453124 1.42188,3.671874 0,2.23438 -1.4375,3.70313 -1.4375,1.46875 -3.625,1.46875 -1.35938,0 -2.58594,-0.60938 -1.22656,-0.60937 -1.86719,-1.79687 -0.64062,-1.1875 -0.64062,-2.875 z m 2.67187,0.14062 q 0,1.46875 0.69531,2.24219 0.69532,0.77344 1.71094,0.77344 1.01563,0 1.71094,-0.77344 0.69531,-0.77344 0.69531,-2.25781 0,-1.45313 -0.69531,-2.23438 -0.69531,-0.78125 -1.71094,-0.78125 -1.01562,0 -1.71094,0.78125 -0.69531,0.78125 -0.69531,2.25 z m 18.28125,4.92188 -2.60937,0 0,-5.03125 q 0,-1.593754 -0.16407,-2.062504 -0.16406,-0.46875 -0.53906,-0.726566 -0.375,-0.25781 -0.90625,-0.25781 -0.6875,0 -1.22656,0.36719 -0.53906,0.367186 -0.73438,0.98437 -0.19531,0.61719 -0.19531,2.25782 l 0,4.46875 -2.60937,0 0,-9.85938 2.42187,0 0,1.453126 q 1.29688,-1.671876 3.25,-1.671876 0.85938,0 1.57813,0.3125 0.71875,0.3125 1.07812,0.796876 0.35938,0.484374 0.50781,1.09375 0.14844,0.609374 0.14844,1.75 l 0,6.125004 z m 7.64063,-13.593754 5.4375,0 q 1.60937,0 2.40625,0.132814 0.79687,0.13281 1.42187,0.554686 0.625,0.421874 1.03906,1.132814 0.41407,0.710936 0.41407,1.60156 0,0.953126 -0.50782,1.75 -0.50781,0.796876 -1.39843,1.1875 1.25,0.375 1.91406,1.24219 0.66406,0.86719 0.66406,2.05469 0,0.92187 -0.42969,1.79687 -0.42968,0.875 -1.17968,1.39844 -0.75,0.52344 -1.84375,0.64844 -0.6875,0.0781 -3.3125,0.0937 l -4.625,0 0,-13.593754 z m 2.75,2.25 0,3.15625 1.79687,0 q 1.60938,0 2,-0.04688 0.70313,-0.09375 1.10156,-0.49219 0.39844,-0.398434 0.39844,-1.054684 0,-0.640626 -0.34375,-1.03125 -0.34375,-0.390626 -1.03125,-0.484376 -0.40625,-0.04687 -2.34375,-0.04687 l -1.57812,0 z m 0,5.421874 0,3.625 2.54687,0 q 1.48438,0 1.875,-0.0781 0.60938,-0.10938 1,-0.53907 0.39063,-0.42968 0.39063,-1.16406 0,-0.60937 -0.29688,-1.03125 -0.29687,-0.42187 -0.85937,-0.61719 -0.5625,-0.19531 -2.4375,-0.19531 l -2.21875,0 z m 10.70312,5.92188 0,-13.593754 2.60938,0 0,13.593754 -2.60938,0 z m 4.57813,-5.0625 q 0,-1.29688 0.64062,-2.51563 0.64063,-1.21875 1.8125,-1.859374 1.17188,-0.640626 2.60938,-0.640626 2.25,0 3.67187,1.453126 1.42188,1.453124 1.42188,3.671874 0,2.23438 -1.4375,3.70313 -1.4375,1.46875 -3.625,1.46875 -1.35938,0 -2.58594,-0.60938 -1.22656,-0.60937 -1.86719,-1.79687 -0.64062,-1.1875 -0.64062,-2.875 z m 2.67187,0.14062 q 0,1.46875 0.69531,2.24219 0.69532,0.77344 1.71094,0.77344 1.01563,0 1.71094,-0.77344 0.69531,-0.77344 0.69531,-2.25781 0,-1.45313 -0.69531,-2.23438 -0.69531,-0.78125 -1.71094,-0.78125 -1.01562,0 -1.71094,0.78125 -0.69531,0.78125 -0.69531,2.25 z m 17.92188,-2.015624 -2.5625,0.46875 q -0.14063,-0.78125 -0.59375,-1.171876 -0.45313,-0.390624 -1.1875,-0.390624 -0.98438,0 -1.5625,0.671874 -0.57813,0.671876 -0.57813,2.25 0,1.76563 0.58594,2.48438 0.58594,0.71875 1.58594,0.71875 0.75,0 1.21875,-0.42188 0.46875,-0.42187 0.67187,-1.45312 l 2.54688,0.4375 q -0.39063,1.76562 -1.52344,2.66406 -1.13281,0.89844 -3.03906,0.89844 -2.15625,0 -3.44532,-1.35938 -1.28906,-1.35937 -1.28906,-3.78125 0,-2.4375 1.29688,-3.796874 1.29687,-1.359376 3.48437,-1.359376 1.79688,0 2.85938,0.77344 1.0625,0.773436 1.53125,2.367186 z m 1.6875,6.937504 0,-13.593754 2.60937,0 0,7.203124 3.0625,-3.46875 3.20313,0 -3.375,3.609376 3.60937,6.250004 -2.79687,0 -2.48438,-4.42188 -1.21875,1.26563 0,3.15625 -2.60937,0 z"
     id="path5208"
     style="fill:#000000;fill-rule:nonzero" />
  <path
     d="m 149.76574,48.739918 155.1181,0 0,30.3937 -155.1181,0 z"
     id="path5210"
     style="fill:#f4cccc;fill-rule:nonzero" />
  <path
     d="m 149.76574,47.739918 0,0 8,0 0,2 -8,0 z m 14,0 0,0 8,0 0,2 -8,0 z m 14,0 0,0 8,0 0,2 -8,0 z m 14,0 0,0 8,0 0,2 -8,0 z m 14,0 0,0 8,0 0,2 -8,0 z m 14,0 0,0 8,0 0,2 -8,0 z m 14,0 0,0 8,0 0,2 -8,0 z m 14,0 0,0 8,0 0,2 -8,0 z m 14,0 0,0 8,0 0,2 -8,0 z m 14,0 0,0 8,0 0,2 -8,0 z m 14,0 0,0 8,0 0,2 -8,0 z m 14,0 0,0 1.1181,0 0.5,0.13399 0.5,0.86601 0,0 0,6.8819 -2,0 0,-6.8819 1,0 0,1 -1.1181,0 z m 2.1181,13.8819 0,0 0,8 -2,0 0,-8 z m 0,14 0,0 0,3.51181 0,0 -0.5,0.86601 -0.5,0.13399 -4.48819,0 0,-2 4.48819,0 0,1 -1,0 0,-3.51181 z m -11.48819,4.51181 0,0 -8,0 0,-2 8,0 z m -14,0 0,0 -8,0 0,-2 8,0 z m -14,0 0,0 -8,0 0,-2 8,0 z m -14,0 0,0 -8,0 0,-2 8,0 z m -14,0 0,0 -8,0 0,-2 8,0 z m -14,0 0,0 -8,0 0,-2 8,0 z m -14,0 0,0 -8,0 0,-2 8,0 z m -14,0 0,0 -8,0 0,-2 8,0 z m -14,0 0,0 -8,0 0,-2 8,0 z m -14,0 0,0 -8,0 0,-2 8,0 z m -14,0 0,0 -4.62991,0 -0.49999,-0.13399 -0.50001,-0.86601 0,0 0,-3.37009 2,0 0,3.37009 -1,0 0,-1 4.62991,0 z m -5.62991,-10.37009 0,0 0,-8 2,0 0,8 z m 0,-14 0,0 0,-7.02362 0,0 0.5,-0.86601 0.5,-0.13399 8,0 0,2 -8,0 0,-1 1,0 0,7.02362 z"
     id="path5212"
     style="fill:#ff0000;fill-rule:nonzero" />
  <path
     d="m 157.047,48.745648 0,2.89063 q 0.73438,-0.84375 1.75,-0.84375 0.51563,0 0.92969,0.1875 0.41406,0.1875 0.63281,0.49219 0.21875,0.30468 0.29688,0.67187 0.0781,0.36719 0.0781,1.13281 l 0,3.34375 -1.51562,0 0,-3.01562 q 0,-0.89063 -0.0859,-1.13281 -0.0859,-0.24219 -0.30469,-0.38282 -0.21875,-0.14062 -0.54687,-0.14062 -0.375,0 -0.67188,0.17969 -0.29687,0.17968 -0.42969,0.54687 -0.13281,0.36719 -0.13281,1.08594 l 0,2.85937 -1.51562,0 0,-7.875 1.51562,0 z m 6.125,3.90625 -1.375,-0.25 q 0.23438,-0.8125 0.79688,-1.21093 0.5625,-0.39844 1.67187,-0.39844 1.01563,0 1.50781,0.23437 0.49219,0.23438 0.69532,0.60157 0.20312,0.36718 0.20312,1.35156 l -0.0156,1.76562 q 0,0.75 0.0703,1.10938 0.0703,0.35937 0.27344,0.76562 l -1.5,0 q -0.0625,-0.15625 -0.14063,-0.45312 -0.0312,-0.125 -0.0469,-0.17188 -0.39063,0.375 -0.83594,0.5625 -0.44531,0.1875 -0.94531,0.1875 -0.875,0 -1.38282,-0.47656 -0.50781,-0.47656 -0.50781,-1.21094 0,-0.48437 0.23438,-0.85937 0.23437,-0.375 0.64843,-0.57813 0.41407,-0.20312 1.19532,-0.35937 1.0625,-0.1875 1.46875,-0.35938 l 0,-0.15625 q 0,-0.4375 -0.21875,-0.61718 -0.21875,-0.17969 -0.8125,-0.17969 -0.39063,0 -0.61719,0.15625 -0.22656,0.15625 -0.36719,0.54687 z m 2.01563,1.23438 q -0.29688,0.0937 -0.92188,0.22656 -0.625,0.13281 -0.8125,0.25781 -0.29687,0.21875 -0.29687,0.53125 0,0.32813 0.23437,0.55469 0.23438,0.22656 0.59375,0.22656 0.40625,0 0.78125,-0.26562 0.28125,-0.20313 0.35938,-0.5 0.0625,-0.1875 0.0625,-0.73438 l 0,-0.29687 z m 2.25,1.10937 1.5,-0.23437 q 0.10937,0.4375 0.39843,0.66406 0.28907,0.22656 0.82032,0.22656 0.59375,0 0.89062,-0.20312 0.20313,-0.15625 0.20313,-0.40625 0,-0.17188 -0.10938,-0.28125 -0.125,-0.10938 -0.51562,-0.20313 -1.8125,-0.40625 -2.3125,-0.73437 -0.67188,-0.46875 -0.67188,-1.28125 0,-0.75 0.58594,-1.25 0.58594,-0.5 1.82031,-0.5 1.17188,0 1.73438,0.375 0.5625,0.375 0.78125,1.125 l -1.42188,0.26562 q -0.0937,-0.32812 -0.34375,-0.50781 -0.25,-0.17969 -0.73437,-0.17969 -0.59375,0 -0.84375,0.17188 -0.17188,0.10937 -0.17188,0.29687 0,0.17188 0.14063,0.28125 0.20312,0.15625 1.41406,0.42969 1.21094,0.27344 1.67969,0.66406 0.48437,0.40625 0.48437,1.125 0,0.78125 -0.65625,1.34375 -0.65625,0.5625 -1.95312,0.5625 -1.15625,0 -1.83594,-0.46875 -0.67969,-0.46875 -0.88281,-1.28125 z m 7.96875,-6.25 0,2.89063 q 0.73437,-0.84375 1.75,-0.84375 0.51562,0 0.92968,0.1875 0.41407,0.1875 0.63282,0.49219 0.21875,0.30468 0.29687,0.67187 0.0781,0.36719 0.0781,1.13281 l 0,3.34375 -1.51563,0 0,-3.01562 q 0,-0.89063 -0.0859,-1.13281 -0.0859,-0.24219 -0.30468,-0.38282 -0.21875,-0.14062 -0.54688,-0.14062 -0.375,0 -0.67187,0.17969 -0.29688,0.17968 -0.42969,0.54687 -0.13281,0.36719 -0.13281,1.08594 l 0,2.85937 -1.51563,0 0,-7.875 1.51563,0 z"
     id="path5214"
     style="fill:#000000;fill-rule:nonzero" />
  <path
     d="m 193.82012,74.213458 0,-13.64062 1.53125,0 0,1.28125 q 0.53125,-0.75 1.21094,-1.125 0.67968,-0.375 1.63281,-0.375 1.26562,0 2.23437,0.64844 0.96875,0.64843 1.46094,1.83593 0.49219,1.1875 0.49219,2.59375 0,1.51563 -0.54688,2.72657 -0.54687,1.21093 -1.57812,1.85156 -1.03125,0.64062 -2.17188,0.64062 -0.84375,0 -1.50781,-0.35156 -0.66406,-0.35156 -1.08594,-0.88281 l 0,4.79687 -1.67187,0 z m 1.51562,-8.65625 q 0,1.90625 0.77344,2.8125 0.77344,0.90625 1.86719,0.90625 1.10937,0 1.89844,-0.9375 0.78906,-0.9375 0.78906,-2.92187 0,-1.875 -0.77344,-2.8125 -0.77344,-0.9375 -1.85156,-0.9375 -1.0625,0 -1.88281,1 -0.82032,1 -0.82032,2.89062 z m 8.82813,4.875 0,-13.59375 1.67187,0 0,13.59375 -1.67187,0 z m 10.62501,-1.21875 q -0.9375,0.79688 -1.7969,1.11719 -0.85936,0.32031 -1.84374,0.32031 -1.60936,0 -2.48436,-0.78906 -0.875,-0.78906 -0.875,-2.02344 0,-0.73437 0.3281,-1.32812 0.32814,-0.59375 0.8594,-0.95313 0.53124,-0.35937 1.2031,-0.54687 0.5,-0.14063 1.4844,-0.25 2.03124,-0.25 2.98436,-0.57813 0,-0.34375 0,-0.4375 0,-1.01562 -0.46876,-1.4375 -0.6406,-0.5625 -1.90624,-0.5625 -1.17186,0 -1.73436,0.40625 -0.5625,0.40625 -0.82814,1.46875 l -1.64062,-0.23437 q 0.23436,-1.04688 0.74219,-1.6875 0.50781,-0.64063 1.46875,-0.99219 0.96092,-0.35156 2.24218,-0.35156 1.26564,0 2.04688,0.29687 0.78126,0.29688 1.15626,0.75 0.375,0.45313 0.5156,1.14063 0.0938,0.42187 0.0938,1.53125 l 0,2.23437 q 0,2.32813 0.10157,2.94532 0.10157,0.61718 0.42967,1.17968 l -1.75,0 q -0.2656,-0.51562 -0.3281,-1.21875 z m -0.14064,-3.71875 q -0.90626,0.35938 -2.73436,0.625 -1.03126,0.14063 -1.45314,0.32813 -0.42186,0.1875 -0.65626,0.54687 -0.23436,0.35938 -0.23436,0.79688 0,0.67187 0.50781,1.11719 0.50781,0.44531 1.47655,0.44531 0.96876,0 1.71876,-0.42969 0.75,-0.42969 1.10938,-1.14844 0.26562,-0.57812 0.26562,-1.67187 l 0,-0.60938 z m 4.09374,-6.75 0,-1.90625 1.6719,0 0,1.90625 -1.6719,0 z m 0,11.6875 0,-9.85937 1.6719,0 0,9.85937 -1.6719,0 z m 4.125,0 0,-9.85937 1.5,0 0,1.40625 q 1.09376,-1.625 3.14064,-1.625 0.89062,0 1.64062,0.32031 0.75,0.32031 1.11719,0.84375 0.36719,0.52344 0.52345,1.22656 0.0937,0.46875 0.0937,1.625 l 0,6.0625 -1.67188,0 0,-6 q 0,-1.01562 -0.19531,-1.52343 -0.19531,-0.50782 -0.69531,-0.80469 -0.5,-0.29688 -1.17188,-0.29688 -1.0625,0 -1.83593,0.67188 -0.77343,0.67187 -0.77343,2.57812 l 0,5.375 -1.6719,0 z m 14.03126,-1.5 0.23438,1.48438 q -0.70314,0.14062 -1.26564,0.14062 -0.90624,0 -1.40624,-0.28906 -0.5,-0.28906 -0.70312,-0.75 -0.20314,-0.46094 -0.20314,-1.97656 l 0,-5.65625 -1.23436,0 0,-1.3125 1.23436,0 0,-2.43751 1.65626,-1 0,3.43751 1.6875,0 0,1.3125 -1.6875,0 0,5.75 q 0,0.71875 0.0859,0.92187 0.0859,0.20313 0.28906,0.32813 0.20314,0.125 0.57814,0.125 0.2656,0 0.73436,-0.0781 z m 8.28124,-1.67187 1.71876,0.21875 q -0.40626,1.5 -1.50781,2.33594 -1.10155,0.83593 -2.82031,0.83593 -2.15624,0 -3.42188,-1.32812 -1.26562,-1.32813 -1.26562,-3.73438 0,-2.48437 1.27344,-3.85937 1.27342,-1.375 3.32032,-1.375 1.98436,0 3.23436,1.34375 1.25,1.34375 1.25,3.79687 0,0.14063 -0.0156,0.4375 l -7.34374,0 q 0.0937,1.625 0.92186,2.48438 0.82814,0.85937 2.0625,0.85937 0.90624,0 1.55469,-0.47656 0.64845,-0.47656 1.03905,-1.53906 z m -5.48436,-2.70313 5.5,0 q -0.10938,-1.23437 -0.625,-1.85937 -0.79688,-0.96875 -2.07814,-0.96875 -1.1406,0 -1.92967,0.77344 -0.78907,0.77343 -0.86719,2.05468 z m 8,5.875 3.59376,-5.125 -3.32814,-4.73437 2.09374,0 1.51564,2.3125 q 0.42186,0.65625 0.67186,1.10937 0.4219,-0.60937 0.76564,-1.09375 l 1.65626,-2.32812 1.98436,0 -3.39062,4.64062 3.65626,5.21875 -2.0469,0 -2.03124,-3.0625 -0.53126,-0.82812 -2.59374,3.89062 -2.01562,0 z m 14.09376,-1.5 0.23436,1.48438 q -0.70312,0.14062 -1.26562,0.14062 -0.90624,0 -1.40624,-0.28906 -0.5,-0.28906 -0.70314,-0.75 -0.20312,-0.46094 -0.20312,-1.97656 l 0,-5.65625 -1.23438,0 0,-1.3125 1.23438,0 0,-2.43751 1.65626,-1 0,3.43751 1.6875,0 0,1.3125 -1.6875,0 0,5.75 q 0,0.71875 0.0859,0.92187 0.0859,0.20313 0.28907,0.32813 0.2031,0.125 0.5781,0.125 0.26564,0 0.7344,-0.0781 z"
     id="path5216"
     style="fill:#000000;fill-rule:nonzero" />
  <path
     d="m 130.81423,94.115238 206.83465,0 0,30.393702 -206.83465,0 z"
     id="path5218"
     style="fill:#f4cccc;fill-rule:nonzero" />
  <path
     d="m 130.81423,93.115258 0,0 8,0 0,2 -8,0 z m 14,0 0,0 8,0 0,2 -8,0 z m 14,0 0,0 8,0 0,2 -8,0 z m 14,0 0,0 8,0 0,2 -8,0 z m 14,0 0,0 8,0 0,2 -8,0 z m 14,0 0,0 8,0 0,2 -8,0 z m 14,0 0,0 8,0 0,2 -8,0 z m 14,0 0,0 8,0 0,2 -8,0 z m 14,0 0,0 8,0 0,2 -8,0 z m 14,0 0,0 8,0 0,2 -8,0 z m 14,0 0,0 8,0 0,2 -8,0 z m 14,0 0,0 8,0 0,2 -8,0 z m 14,0 0,0 8,0 0,2 -8,0 z m 14,0 0,0 8,0 0,2 -8,0 z m 14,0 0,0 8,0 0,2 -8,0 z m 11.83465,4.16534 0,0 0,8.000002 -2,0 0,-8.000002 z m 0,14.000002 0,0 0,8 -2,0 0,-8 z m -1.77166,14.22834 0,0 -8,0 0,-2 8,0 z m -14,0 0,0 -8,0 0,-2 8,0 z m -14,0 0,0 -8,0 0,-2 8,0 z m -14,0 0,0 -8,0 0,-2 8,0 z m -14,0 0,0 -8,0 0,-2 8,0 z m -14,0 0,0 -8,0 0,-2 8,0 z m -14,0 0,0 -8,0 0,-2 8,0 z m -14,0 0,0 -8,0 0,-2 8,0 z m -14,0 0,0 -8,0 0,-2 8,0 z m -14,0 0,0 -8,0 0,-2 8,0 z m -14,0 0,0 -8,0 0,-2 8,0 z m -14,0 0,0 -8,0 0,-2 8,0 z m -14,0 0,0 -8,0 0,-2 8,0 z m -14,0 0,0 -8,0 0,-2 8,0 z m -14,0 0,0 -8,0 0,-2 8,0 z m -11.06299,-4.93702 0,0 0,-8 2,0 0,8 z m 0,-14 0,0 0,-8.000002 2,0 0,8.000002 z m 1,-13.456662 0,0 8,0 0,2 -8,0 z"
     id="path5220"
     style="fill:#ff0000;fill-rule:nonzero" />
  <path
     d="m 143.89133,94.120978 0,2.89063 q 0.73438,-0.84375 1.75,-0.84375 0.51563,0 0.92969,0.1875 0.41406,0.1875 0.63281,0.49218 0.21875,0.30469 0.29688,0.67188 0.0781,0.36719 0.0781,1.13281 l 0,3.343752 -1.51562,0 0,-3.015622 q 0,-0.89063 -0.0859,-1.13282 -0.0859,-0.24218 -0.30469,-0.38281 -0.21875,-0.14062 -0.54687,-0.14062 -0.375,0 -0.67188,0.17968 -0.29687,0.17969 -0.42969,0.54688 -0.13281,0.36719 -0.13281,1.08594 l 0,2.859372 -1.51562,0 0,-7.875002 1.51562,0 z m 6.14063,3.90625 -1.375,-0.25 q 0.23437,-0.8125 0.79687,-1.21094 0.5625,-0.39843 1.67188,-0.39843 1.01562,0 1.50781,0.23437 0.49219,0.23438 0.69531,0.60156 0.20313,0.36719 0.20313,1.35157 l -0.0156,1.765622 q 0,0.75 0.0703,1.10938 0.0703,0.35937 0.27344,0.76562 l -1.5,0 q -0.0625,-0.15625 -0.14062,-0.45312 -0.0312,-0.125 -0.0469,-0.17188 -0.39062,0.375 -0.83594,0.5625 -0.44531,0.1875 -0.94531,0.1875 -0.875,0 -1.38281,-0.47656 -0.50781,-0.47656 -0.50781,-1.21094 0,-0.484372 0.23437,-0.859372 0.23438,-0.375 0.64844,-0.57813 0.41406,-0.20312 1.19531,-0.35937 1.0625,-0.1875 1.46875,-0.35938 l 0,-0.15625 q 0,-0.4375 -0.21875,-0.61719 -0.21875,-0.17968 -0.8125,-0.17968 -0.39062,0 -0.61719,0.15625 -0.22656,0.15625 -0.36718,0.54687 z m 2.01562,1.23438 q -0.29687,0.0937 -0.92187,0.22656 -0.625,0.13281 -0.8125,0.25781 -0.29688,0.21875 -0.29688,0.531252 0,0.32813 0.23438,0.55469 0.23437,0.22656 0.59375,0.22656 0.40625,0 0.78125,-0.26562 0.28125,-0.20313 0.35937,-0.5 0.0625,-0.1875 0.0625,-0.734382 l 0,-0.29687 z m 2.25,1.109372 1.5,-0.23437 q 0.10938,0.4375 0.39844,0.66406 0.28906,0.22656 0.82031,0.22656 0.59375,0 0.89063,-0.20312 0.20312,-0.15625 0.20312,-0.40625 0,-0.17188 -0.10937,-0.28125 -0.125,-0.10938 -0.51563,-0.203132 -1.8125,-0.40625 -2.3125,-0.73437 -0.67187,-0.46875 -0.67187,-1.28125 0,-0.75 0.58593,-1.25 0.58594,-0.5 1.82032,-0.5 1.17187,0 1.73437,0.375 0.5625,0.375 0.78125,1.125 l -1.42187,0.26562 q -0.0937,-0.32812 -0.34375,-0.50781 -0.25,-0.17969 -0.73438,-0.17969 -0.59375,0 -0.84375,0.17188 -0.17187,0.10937 -0.17187,0.29687 0,0.17188 0.14062,0.28125 0.20313,0.15625 1.41406,0.42969 1.21094,0.27344 1.67969,0.66406 0.48438,0.40625 0.48438,1.125002 0,0.78125 -0.65625,1.34375 -0.65625,0.5625 -1.95313,0.5625 -1.15625,0 -1.83594,-0.46875 -0.67968,-0.46875 -0.88281,-1.28125 z m 7.95313,-6.250002 0,2.89063 q 0.73437,-0.84375 1.75,-0.84375 0.51562,0 0.92968,0.1875 0.41407,0.1875 0.63282,0.49218 0.21875,0.30469 0.29687,0.67188 0.0781,0.36719 0.0781,1.13281 l 0,3.343752 -1.51563,0 0,-3.015622 q 0,-0.89063 -0.0859,-1.13282 -0.0859,-0.24218 -0.30468,-0.38281 -0.21875,-0.14062 -0.54688,-0.14062 -0.375,0 -0.67187,0.17968 -0.29688,0.17969 -0.42969,0.54688 -0.13281,0.36719 -0.13281,1.08594 l 0,2.859372 -1.51563,0 0,-7.875002 1.51563,0 z"
     id="path5222"
     style="fill:#000000;fill-rule:nonzero" />
  <path
     d="m 176.7185,111.16978 1.71875,0.21875 q -0.40625,1.5 -1.50782,2.33594 -1.10156,0.83593 -2.82031,0.83593 -2.15625,0 -3.42187,-1.32812 -1.26563,-1.32813 -1.26563,-3.73438 0,-2.48437 1.27344,-3.85937 1.27344,-1.375 3.32031,-1.375 1.98438,0 3.23438,1.34375 1.25,1.34375 1.25,3.79687 0,0.14063 -0.0156,0.4375 l -7.34375,0 q 0.0937,1.625 0.92188,2.48438 0.82812,0.85937 2.0625,0.85937 0.90625,0 1.55468,-0.47656 0.64844,-0.47656 1.03907,-1.53906 z m -5.48438,-2.70313 5.5,0 q -0.10937,-1.23437 -0.625,-1.85937 -0.79687,-0.96875 -2.07812,-0.96875 -1.14063,0 -1.92969,0.77344 -0.78906,0.77343 -0.86719,2.05468 z m 9.10938,5.875 0,-9.85937 1.5,0 0,1.40625 q 1.09375,-1.625 3.14062,-1.625 0.89063,0 1.64063,0.32031 0.75,0.32031 1.11718,0.84375 0.36719,0.52344 0.52344,1.22656 0.0937,0.46875 0.0937,1.625 l 0,6.0625 -1.67187,0 0,-6 q 0,-1.01562 -0.19532,-1.52343 -0.19531,-0.50782 -0.69531,-0.80469 -0.5,-0.29688 -1.17187,-0.29688 -1.0625,0 -1.83594,0.67188 -0.77344,0.67187 -0.77344,2.57812 l 0,5.375 -1.67187,0 z m 16.8125,-3.60937 1.64062,0.21875 q -0.26562,1.6875 -1.375,2.64844 -1.10937,0.96093 -2.73437,0.96093 -2.01563,0 -3.24219,-1.32031 -1.22656,-1.32031 -1.22656,-3.78906 0,-1.59375 0.52343,-2.78906 0.52344,-1.19532 1.60938,-1.79688 1.08594,-0.60156 2.35156,-0.60156 1.60938,0 2.625,0.8125 1.01563,0.8125 1.3125,2.3125 l -1.625,0.25 q -0.23437,-1 -0.82812,-1.5 -0.59375,-0.5 -1.42188,-0.5 -1.26562,0 -2.05469,0.90625 -0.78906,0.90625 -0.78906,2.85937 0,1.98438 0.76563,2.88282 0.76562,0.89843 1.98437,0.89843 0.98438,0 1.64063,-0.60156 0.65625,-0.60156 0.84375,-1.85156 z m 2.875,3.60937 0,-9.85937 1.5,0 0,1.5 q 0.57812,-1.04688 1.0625,-1.38281 0.48437,-0.33594 1.07812,-0.33594 0.84375,0 1.71875,0.54687 l -0.57812,1.54688 q -0.60938,-0.35938 -1.23438,-0.35938 -0.54687,0 -0.97656,0.32813 -0.42969,0.32812 -0.61719,0.90625 -0.28125,0.89062 -0.28125,1.95312 l 0,5.15625 -1.67187,0 z m 6.15625,3.79688 -0.17188,-1.5625 q 0.54688,0.14062 0.95313,0.14062 0.54688,0 0.88281,-0.1875 0.33594,-0.1875 0.55469,-0.51562 0.15625,-0.25 0.5,-1.25 0.0469,-0.14063 0.15625,-0.40625 l -3.73438,-9.875 1.79688,0 2.04687,5.71875 q 0.40626,1.07812 0.71876,2.28125 0.28124,-1.15625 0.6875,-2.25 l 2.09374,-5.75 1.67188,0 -3.75,10.03125 q -0.59375,1.625 -0.9375,2.23437 -0.4375,0.82813 -1.01562,1.21094 -0.57813,0.38281 -1.375,0.38281 -0.48438,0 -1.07813,-0.20312 z m 9.40625,-0.0156 0,-13.64062 1.53125,0 0,1.28125 q 0.53125,-0.75 1.21093,-1.125 0.6797,-0.375 1.63282,-0.375 1.26562,0 2.23438,0.64844 0.96874,0.64843 1.46093,1.83593 0.49219,1.1875 0.49219,2.59375 0,1.51563 -0.54688,2.72657 -0.54687,1.21093 -1.57812,1.85156 -1.03125,0.64062 -2.17188,0.64062 -0.84374,0 -1.50781,-0.35156 -0.66406,-0.35156 -1.08593,-0.88281 l 0,4.79687 -1.67188,0 z m 1.51562,-8.65625 q 0,1.90625 0.77344,2.8125 0.77344,0.90625 1.86719,0.90625 1.10937,0 1.89843,-0.9375 0.78907,-0.9375 0.78907,-2.92187 0,-1.875 -0.77344,-2.8125 -0.77343,-0.9375 -1.85156,-0.9375 -1.0625,0 -1.88282,1 -0.82031,1 -0.82031,2.89062 z m 12.51563,3.375 0.23437,1.48438 q -0.70312,0.14062 -1.26562,0.14062 -0.90625,0 -1.40625,-0.28906 -0.5,-0.28906 -0.70313,-0.75 -0.20312,-0.46094 -0.20312,-1.97656 l 0,-5.65625 -1.23438,0 0,-1.3125 1.23438,0 0,-2.4375 1.65625,-1 0,3.4375 1.6875,0 0,1.3125 -1.6875,0 0,5.75 q 0,0.71875 0.0859,0.92187 0.0859,0.20313 0.28907,0.32813 0.20313,0.125 0.57813,0.125 0.26562,0 0.73437,-0.0781 z m 8.28125,-1.67187 1.71875,0.21875 q -0.40625,1.5 -1.50782,2.33594 -1.10155,0.83593 -2.82031,0.83593 -2.15624,0 -3.42187,-1.32812 -1.26563,-1.32813 -1.26563,-3.73438 0,-2.48437 1.27344,-3.85937 1.27344,-1.375 3.32032,-1.375 1.98437,0 3.23437,1.34375 1.25,1.34375 1.25,3.79687 0,0.14063 -0.0156,0.4375 l -7.34374,0 q 0.0937,1.625 0.92187,2.48438 0.82813,0.85937 2.0625,0.85937 0.90625,0 1.55468,-0.47656 0.64845,-0.47656 1.03907,-1.53906 z m -5.48438,-2.70313 5.5,0 q -0.10937,-1.23437 -0.625,-1.85937 -0.79687,-0.96875 -2.07812,-0.96875 -1.14062,0 -1.92969,0.77344 -0.78906,0.77343 -0.86719,2.05468 z m 15.5,5.875 0,-1.25 q -0.9375,1.46875 -2.75,1.46875 -1.17187,0 -2.16406,-0.64843 -0.99218,-0.64844 -1.53125,-1.8125 -0.53906,-1.16407 -0.53906,-2.67969 0,-1.46875 0.49218,-2.67188 0.49219,-1.20312 1.46875,-1.84375 0.97657,-0.64062 2.19532,-0.64062 0.89062,0 1.58593,0.375 0.69532,0.375 1.13282,0.98437 l 0,-4.875 1.65625,0 0,13.59375 -1.54688,0 z m -5.28124,-4.92187 q 0,1.89062 0.80468,2.82812 0.80469,0.9375 1.88282,0.9375 1.09374,0 1.85937,-0.89062 0.76563,-0.89063 0.76563,-2.73438 0,-2.01562 -0.78126,-2.96093 -0.78124,-0.94532 -1.92187,-0.94532 -1.10937,0 -1.85937,0.90625 -0.75,0.90625 -0.75,2.85938 z m 18.10937,3.42187 0.23437,1.48438 q -0.70312,0.14062 -1.26562,0.14062 -0.90625,0 -1.40625,-0.28906 -0.5,-0.28906 -0.70313,-0.75 -0.20312,-0.46094 -0.20312,-1.97656 l 0,-5.65625 -1.23438,0 0,-1.3125 1.23438,0 0,-2.4375 1.65625,-1 0,3.4375 1.6875,0 0,1.3125 -1.6875,0 0,5.75 q 0,0.71875 0.0859,0.92187 0.0859,0.20313 0.28907,0.32813 0.20313,0.125 0.57813,0.125 0.26562,0 0.73437,-0.0781 z m 8.26563,-1.67187 1.71874,0.21875 q -0.40624,1.5 -1.50781,2.33594 -1.10156,0.83593 -2.82031,0.83593 -2.15625,0 -3.42188,-1.32812 -1.26562,-1.32813 -1.26562,-3.73438 0,-2.48437 1.27343,-3.85937 1.27345,-1.375 3.32032,-1.375 1.98437,0 3.23437,1.34375 1.25,1.34375 1.25,3.79687 0,0.14063 -0.0156,0.4375 l -7.34375,0 q 0.0937,1.625 0.92187,2.48438 0.82813,0.85937 2.0625,0.85937 0.90626,0 1.55469,-0.47656 0.64844,-0.47656 1.03907,-1.53906 z m -5.48438,-2.70313 5.5,0 q -0.10938,-1.23437 -0.625,-1.85937 -0.79688,-0.96875 -2.07812,-0.96875 -1.14063,0 -1.9297,0.77344 -0.78906,0.77343 -0.86718,2.05468 z m 8,5.875 3.59375,-5.125 -3.32813,-4.73437 2.09376,0 1.51562,2.3125 q 0.42188,0.65625 0.67188,1.10937 0.42187,-0.60937 0.76562,-1.09375 l 1.65625,-2.32812 1.98437,0 -3.39062,4.64062 3.65625,5.21875 -2.04687,0 -2.03126,-3.0625 -0.53124,-0.82812 -2.59376,3.89062 -2.01562,0 z m 14.09375,-1.5 0.23437,1.48438 q -0.70312,0.14062 -1.26562,0.14062 -0.90625,0 -1.40625,-0.28906 -0.5,-0.28906 -0.70313,-0.75 -0.20312,-0.46094 -0.20312,-1.97656 l 0,-5.65625 -1.23438,0 0,-1.3125 1.23438,0 0,-2.4375 1.65625,-1 0,3.4375 1.6875,0 0,1.3125 -1.6875,0 0,5.75 q 0,0.71875 0.0859,0.92187 0.0859,0.20313 0.28907,0.32813 0.20313,0.125 0.57813,0.125 0.26562,0 0.73437,-0.0781 z"
     id="path5224"
     style="fill:#000000;fill-rule:nonzero" />
  <path
     d="m 122.4572,139.18611 220.09448,0 0,30.3937 -220.09448,0 z"
     id="path5226"
     style="fill:#f4cccc;fill-rule:nonzero" />
  <path
     d="m 122.4572,138.18612 0,0 8,0 0,2 -8,0 z m 14,0 0,0 8,0 0,2 -8,0 z m 14,0 0,0 8,0 0,2 -8,0 z m 14,0 0,0 8,0 0,2 -8,0 z m 14,0 0,0 8,0 0,2 -8,0 z m 14,0 0,0 8,0 0,2 -8,0 z m 14,0 0,0 8,0 0,2 -8,0 z m 14,0 0,0 8,0 0,2 -8,0 z m 14,0 0,0 8,0 0,2 -8,0 z m 14,0 0,0 8,0 0,2 -8,0 z m 14,0 0,0 8,0 0,2 -8,0 z m 14,0 0,0 8,0 0,2 -8,0 z m 14,0 0,0 8,0 0,2 -8,0 z m 14,0 0,0 8,0 0,2 -8,0 z m 14,0 0,0 8,0 0,2 -8,0 z m 14,0 0,0 8,0 0,2 -8,0 z m 11.09448,4.90552 0,0 0,8 -2,0 0,-8 z m 0,14 0,0 0,8 -2,0 0,-8 z m -2.5118,13.48819 0,0 -8,0 0,-2 8,0 z m -14,0 0,0 -8,0 0,-2 8,0 z m -14,0 0,0 -8,0 0,-2 8,0 z m -14,0 0,0 -8,0 0,-2 8,0 z m -14,0 0,0 -8,0 0,-2 8,0 z m -14,0 0,0 -8,0 0,-2 8,0 z m -14,0 0,0 -8,0 0,-2 8,0 z m -14,0 0,0 -8,0 0,-2 8,0 z m -14,0 0,0 -8,0 0,-2 8,0 z m -14,0 0,0 -8,0 0,-2 8,0 z m -14,0 0,0 -8,0 0,-2 8,0 z m -14,0 0,0 -8,0 0,-2 8,0 z m -14,0 0,0 -8,0 0,-2 8,0 z m -14,0 0,0 -8,0 0,-2 8,0 z m -14,0 0,0 -8,0 0,-2 8,0 z m -14,0 0,0 -8,0 0,-2 8,0 z m -9.58268,-6.41733 0,0 0,-8 2,0 0,8 z m 0,-14 0,0 0,-8 2,0 0,8 z m 1,-11.97638 0,0 8,0 0,2 -8,0 z"
     id="path5228"
     style="fill:#ff0000;fill-rule:nonzero" />
  <path
     d="m 129.7385,139.19184 0,2.89063 q 0.73438,-0.84375 1.75,-0.84375 0.51562,0 0.92968,0.1875 0.41407,0.1875 0.63282,0.49219 0.21875,0.30468 0.29688,0.67187 0.0781,0.36719 0.0781,1.13281 l 0,3.34375 -1.51562,0 0,-3.01562 q 0,-0.89063 -0.0859,-1.13281 -0.0859,-0.24219 -0.30469,-0.38282 -0.21875,-0.14062 -0.54687,-0.14062 -0.375,0 -0.67188,0.17969 -0.29688,0.17968 -0.42969,0.54687 -0.13281,0.36719 -0.13281,1.08594 l 0,2.85937 -1.51562,0 0,-7.875 1.51562,0 z m 6.125,3.90625 -1.375,-0.25 q 0.23438,-0.8125 0.79688,-1.21093 0.5625,-0.39844 1.67187,-0.39844 1.01563,0 1.50781,0.23437 0.49219,0.23438 0.69532,0.60157 0.20312,0.36718 0.20312,1.35156 l -0.0156,1.76562 q 0,0.75 0.0703,1.10938 0.0703,0.35937 0.27344,0.76562 l -1.5,0 q -0.0625,-0.15625 -0.14062,-0.45312 -0.0312,-0.125 -0.0469,-0.17188 -0.39062,0.375 -0.83594,0.5625 -0.4453,0.1875 -0.9453,0.1875 -0.875,0 -1.38282,-0.47656 -0.50781,-0.47656 -0.50781,-1.21094 0,-0.48437 0.23437,-0.85937 0.23438,-0.375 0.64844,-0.57813 0.41406,-0.20312 1.19532,-0.35937 1.0625,-0.1875 1.46874,-0.35938 l 0,-0.15625 q 0,-0.4375 -0.21874,-0.61718 -0.21876,-0.17969 -0.8125,-0.17969 -0.39063,0 -0.6172,0.15625 -0.22656,0.15625 -0.36718,0.54687 z m 2.01562,1.23438 q -0.29687,0.0937 -0.92187,0.22656 -0.625,0.13281 -0.8125,0.25781 -0.29687,0.21875 -0.29687,0.53125 0,0.32813 0.23437,0.55469 0.23437,0.22656 0.59375,0.22656 0.40625,0 0.78125,-0.26562 0.28125,-0.20313 0.35937,-0.5 0.0625,-0.1875 0.0625,-0.73438 l 0,-0.29687 z m 2.25,1.10937 1.5,-0.23437 q 0.10938,0.4375 0.39844,0.66406 0.28906,0.22656 0.82032,0.22656 0.59374,0 0.89062,-0.20312 0.20312,-0.15625 0.20312,-0.40625 0,-0.17188 -0.10937,-0.28125 -0.125,-0.10938 -0.51563,-0.20313 -1.8125,-0.40625 -2.3125,-0.73437 -0.67187,-0.46875 -0.67187,-1.28125 0,-0.75 0.58593,-1.25 0.58594,-0.5 1.82032,-0.5 1.17188,0 1.73438,0.375 0.5625,0.375 0.78124,1.125 l -1.42187,0.26562 q -0.0937,-0.32812 -0.34375,-0.50781 -0.25,-0.17969 -0.73438,-0.17969 -0.59374,0 -0.84374,0.17188 -0.17188,0.10937 -0.17188,0.29687 0,0.17188 0.14062,0.28125 0.20313,0.15625 1.41406,0.42969 1.21094,0.27344 1.6797,0.66406 0.48437,0.40625 0.48437,1.125 0,0.78125 -0.65625,1.34375 -0.65625,0.5625 -1.95312,0.5625 -1.15626,0 -1.83594,-0.46875 -0.67969,-0.46875 -0.88282,-1.28125 z m 7.96876,-6.25 0,2.89063 q 0.73437,-0.84375 1.75,-0.84375 0.51562,0 0.92968,0.1875 0.41406,0.1875 0.63282,0.49219 0.21874,0.30468 0.29687,0.67187 0.0781,0.36719 0.0781,1.13281 l 0,3.34375 -1.51563,0 0,-3.01562 q 0,-0.89063 -0.0859,-1.13281 -0.0859,-0.24219 -0.30469,-0.38282 -0.21874,-0.14062 -0.54687,-0.14062 -0.375,0 -0.67187,0.17969 -0.29688,0.17968 -0.4297,0.54687 -0.1328,0.36719 -0.1328,1.08594 l 0,2.85937 -1.51563,0 0,-7.875 1.51563,0 z"
     id="path5230"
     style="fill:#000000;fill-rule:nonzero" />
  <path
     d="m 182.99891,156.1054 1.79687,0.45313 q -0.5625,2.21875 -2.03125,3.38281 -1.46875,1.16406 -3.59375,1.16406 -2.20312,0 -3.57812,-0.89844 -1.375,-0.89843 -2.09375,-2.59375 -0.71875,-1.69531 -0.71875,-3.64843 0,-2.125 0.80468,-3.70313 0.80469,-1.57812 2.30469,-2.39844 1.5,-0.82031 3.29688,-0.82031 2.04687,0 3.4375,1.03906 1.39062,1.03907 1.9375,2.91407 l -1.76563,0.42187 q -0.46875,-1.48437 -1.375,-2.16406 -0.90625,-0.67969 -2.26562,-0.67969 -1.5625,0 -2.61719,0.75 -1.05469,0.75 -1.48438,2.02344 -0.42968,1.27344 -0.42968,2.61719 0,1.73437 0.50781,3.02343 0.50781,1.28907 1.57812,1.92969 1.07032,0.64063 2.30469,0.64063 1.51563,0 2.5625,-0.86719 1.04688,-0.86719 1.42188,-2.58594 z m 3.8125,4.76563 0,-13.59375 9.84375,0 0,1.59375 -8.04688,0 0,4.17187 7.53125,0 0,1.59375 -7.53125,0 0,4.625 8.35938,0 0,1.60938 -10.15625,0 z m 12.32812,0 0,-13.59375 5.10938,0 q 1.54687,0 2.4922,0.40625 0.94531,0.40625 1.47657,1.26562 0.53124,0.85938 0.53124,1.79688 0,0.875 -0.46874,1.64843 -0.46876,0.77344 -1.4375,1.24219 1.23437,0.35938 1.89843,1.23438 0.66407,0.875 0.66407,2.0625 0,0.95312 -0.39845,1.77343 -0.39843,0.82032 -0.99218,1.26563 -0.59375,0.44531 -1.49219,0.67187 -0.89845,0.22657 -2.19533,0.22657 l -5.1875,0 z m 1.79688,-7.89063 2.9375,0 q 1.20312,0 1.71875,-0.15625 0.6875,-0.20312 1.03907,-0.67187 0.35157,-0.46875 0.35157,-1.1875 0,-0.67188 -0.32812,-1.1875 -0.32815,-0.51563 -0.92971,-0.71094 -0.60156,-0.19531 -2.07031,-0.19531 l -2.71875,0 0,4.10937 z m 0,6.28125 3.39062,0 q 0.875,0 1.21875,-0.0625 0.625,-0.10937 1.0469,-0.36719 0.42187,-0.25781 0.6875,-0.75781 0.26562,-0.5 0.26562,-1.14062 0,-0.76563 -0.39062,-1.32813 -0.39063,-0.5625 -1.07815,-0.78906 -0.6875,-0.22656 -1.98437,-0.22656 l -3.15625,0 0,4.67187 z m 9.25001,1.84375 3.9375,-14.0625 1.34376,0 -3.9375,14.0625 -1.34376,0 z m 6.4375,-0.23437 0,-13.59375 1.67188,0 0,4.875 q 1.17188,-1.35938 2.95312,-1.35938 1.09376,0 1.89844,0.42969 0.80469,0.42969 1.15625,1.19531 0.35157,0.76563 0.35157,2.20313 l 0,6.25 -1.67188,0 0,-6.25 q 0,-1.25 -0.54688,-1.82032 -0.54687,-0.57031 -1.53124,-0.57031 -0.75,0 -1.39845,0.38281 -0.64843,0.38282 -0.92968,1.04688 -0.28125,0.66406 -0.28125,1.82031 l 0,5.39063 -1.67188,0 z m 16.8125,-1.21875 q -0.9375,0.79687 -1.79687,1.11718 -0.85937,0.32032 -1.84375,0.32032 -1.60938,0 -2.48438,-0.78907 -0.875,-0.78906 -0.875,-2.02343 0,-0.73438 0.32813,-1.32813 0.32813,-0.59375 0.85937,-0.95312 0.53126,-0.35938 1.20313,-0.54688 0.5,-0.14062 1.48437,-0.25 2.03126,-0.25 2.98438,-0.57812 0,-0.34375 0,-0.4375 0,-1.01563 -0.46875,-1.4375 -0.64063,-0.5625 -1.90625,-0.5625 -1.17188,0 -1.73438,0.40625 -0.5625,0.40625 -0.82812,1.46875 l -1.64062,-0.23438 q 0.23437,-1.04687 0.74218,-1.6875 0.50782,-0.64062 1.46875,-0.99219 0.96094,-0.35156 2.24219,-0.35156 1.26562,0 2.04688,0.29688 0.78124,0.29687 1.15624,0.75 0.375,0.45312 0.51563,1.14062 0.0937,0.42188 0.0937,1.53125 l 0,2.23438 q 0,2.32812 0.10156,2.94531 0.10156,0.61719 0.42969,1.17969 l -1.75,0 q -0.26563,-0.51563 -0.32813,-1.21875 z m -0.14062,-3.71875 q -0.90625,0.35937 -2.73438,0.625 -1.03124,0.14062 -1.45312,0.32812 -0.42188,0.1875 -0.65625,0.54688 -0.23437,0.35937 -0.23437,0.79687 0,0.67188 0.5078,1.11719 0.50782,0.44531 1.47657,0.44531 0.96875,0 1.71875,-0.42969 0.75,-0.42968 1.10938,-1.14843 0.26562,-0.57813 0.26562,-1.67188 l 0,-0.60937 z m 3.40625,2 1.65625,-0.26563 q 0.14062,1 0.77343,1.52344 0.63282,0.52344 1.77345,0.52344 1.15624,0 1.71093,-0.46875 0.55469,-0.46875 0.55469,-1.09375 0,-0.5625 -0.48438,-0.89063 -0.34374,-0.21875 -1.70312,-0.5625 -1.84375,-0.46875 -2.55469,-0.80469 -0.71093,-0.33593 -1.07813,-0.9375 -0.36718,-0.60156 -0.36718,-1.32031 0,-0.65625 0.30468,-1.21875 0.3047,-0.5625 0.82032,-0.9375 0.39062,-0.28125 1.0625,-0.48437 0.67188,-0.20313 1.4375,-0.20313 1.17188,0 2.04688,0.33594 0.875,0.33594 1.28905,0.90625 0.41407,0.57031 0.57032,1.52344 l -1.625,0.21875 q -0.10937,-0.75 -0.64844,-1.17969 -0.53906,-0.42969 -1.50781,-0.42969 -1.15625,0 -1.64062,0.38281 -0.48438,0.38282 -0.48438,0.88282 0,0.32812 0.20312,0.59375 0.20313,0.26562 0.64063,0.4375 0.25,0.0937 1.46875,0.4375 1.76562,0.46875 2.46875,0.76562 0.70313,0.29688 1.10156,0.875 0.39844,0.57813 0.39844,1.4375 0,0.82813 -0.48437,1.57031 -0.48438,0.74219 -1.40626,1.14063 -0.92187,0.39844 -2.07812,0.39844 -1.92188,0 -2.92969,-0.79688 -1.00781,-0.79687 -1.28906,-2.35937 z m 10,2.9375 0,-13.59375 1.67187,0 0,4.875 q 1.17188,-1.35938 2.95313,-1.35938 1.09375,0 1.89843,0.42969 0.8047,0.42969 1.15625,1.19531 0.35157,0.76563 0.35157,2.20313 l 0,6.25 -1.67188,0 0,-6.25 q 0,-1.25 -0.54687,-1.82032 -0.54687,-0.57031 -1.53125,-0.57031 -0.75,0 -1.39844,0.38281 -0.64844,0.38282 -0.92968,1.04688 -0.28126,0.66406 -0.28126,1.82031 l 0,5.39063 -1.67187,0 z m 19.21875,-1.5 0.23438,1.48437 q -0.70313,0.14063 -1.26563,0.14063 -0.90625,0 -1.40625,-0.28907 -0.5,-0.28906 -0.70312,-0.75 -0.20313,-0.46093 -0.20313,-1.97656 l 0,-5.65625 -1.23437,0 0,-1.3125 1.23437,0 0,-2.4375 1.65625,-1 0,3.4375 1.6875,0 0,1.3125 -1.6875,0 0,5.75 q 0,0.71875 0.0859,0.92188 0.0859,0.20312 0.28907,0.32812 0.20312,0.125 0.57812,0.125 0.26563,0 0.73438,-0.0781 z m 1.51562,1.5 0,-9.85938 1.5,0 0,1.5 q 0.57813,-1.04687 1.0625,-1.38281 0.48438,-0.33594 1.07813,-0.33594 0.84375,0 1.71875,0.54688 l -0.57812,1.54687 q -0.60938,-0.35937 -1.23438,-0.35937 -0.54688,0 -0.97657,0.32812 -0.42968,0.32813 -0.61718,0.90625 -0.28125,0.89063 -0.28125,1.95313 l 0,5.15625 -1.67188,0 z m 12.96876,-3.17188 1.71874,0.21875 q -0.40624,1.5 -1.50781,2.33594 -1.10156,0.83594 -2.82031,0.83594 -2.15625,0 -3.42188,-1.32813 -1.26562,-1.32812 -1.26562,-3.73437 0,-2.48438 1.27343,-3.85938 1.27345,-1.375 3.32032,-1.375 1.98437,0 3.23437,1.34375 1.25,1.34375 1.25,3.79688 0,0.14062 -0.0156,0.4375 l -7.34375,0 q 0.0937,1.625 0.92187,2.48437 0.82813,0.85938 2.0625,0.85938 0.90626,0 1.55469,-0.47657 0.64844,-0.47656 1.03907,-1.53906 z m -5.48438,-2.70312 5.5,0 q -0.10938,-1.23438 -0.625,-1.85938 -0.79688,-0.96875 -2.07812,-0.96875 -1.14063,0 -1.9297,0.77344 -0.78906,0.77344 -0.86718,2.05469 z m 15.85938,2.70312 1.71874,0.21875 q -0.40624,1.5 -1.50781,2.33594 -1.10156,0.83594 -2.82031,0.83594 -2.15625,0 -3.42188,-1.32813 -1.26562,-1.32812 -1.26562,-3.73437 0,-2.48438 1.27343,-3.85938 1.27345,-1.375 3.32032,-1.375 1.98437,0 3.23437,1.34375 1.25,1.34375 1.25,3.79688 0,0.14062 -0.0156,0.4375 l -7.34375,0 q 0.0937,1.625 0.92187,2.48437 0.82813,0.85938 2.0625,0.85938 0.90626,0 1.55469,-0.47657 0.64844,-0.47656 1.03907,-1.53906 z m -5.48438,-2.70312 5.5,0 q -0.10938,-1.23438 -0.625,-1.85938 -0.79688,-0.96875 -2.07812,-0.96875 -1.14063,0 -1.9297,0.77344 -0.78906,0.77344 -0.86718,2.05469 z"
     id="path5232"
     style="fill:#000000;fill-rule:nonzero" />
  <path
     d="m 9.6712422,50.834398 109.0078878,0 0,26.20472 -109.0078878,0 z"
     id="path5234"
     style="fill:#cfe2f3;fill-rule:nonzero;stroke:#073763;stroke-width:2;stroke-linecap:butt;stroke-linejoin:round" />
  <path
     d="m 34.714305,70.424828 0,-8.54688 -1.48438,0 0,-1.3125 1.48438,0 0,-1.04687 q 0,-0.98438 0.17187,-1.46875 0.23438,-0.65625 0.84375,-1.05469 0.60938,-0.39844 1.70313,-0.39844 0.70312,0 1.5625,0.15625 l -0.25,1.46875 q -0.51563,-0.0937 -0.98438,-0.0937 -0.76562,0 -1.07812,0.32032 -0.3125,0.32031 -0.3125,1.21093 l 0,0.90625 1.92187,0 0,1.3125 -1.92187,0 0,8.54688 -1.65625,0 z m 4.79687,-11.6875 0,-1.90625 1.67188,0 0,1.90625 -1.67188,0 z m 0,11.6875 0,-9.85938 1.67188,0 0,9.85938 -1.67188,0 z m 4.09375,0 0,-13.59375 1.67188,0 0,13.59375 -1.67188,0 z m 10.9375,-3.17188 1.71875,0.21875 q -0.40625,1.5 -1.50781,2.33594 -1.10156,0.83594 -2.82031,0.83594 -2.15625,0 -3.42188,-1.32813 -1.26562,-1.32812 -1.26562,-3.73437 0,-2.48438 1.273434,-3.85938 1.273436,-1.375 3.320316,-1.375 1.98437,0 3.23437,1.34375 1.25,1.34375 1.25,3.79688 0,0.14062 -0.0156,0.4375 l -7.34375,0 q 0.09375,1.625 0.92187,2.48437 0.82813,0.85938 2.0625,0.85938 0.90625,0 1.55469,-0.47656 0.64844,-0.47657 1.03906,-1.53907 z m -5.48437,-2.70312 5.5,0 q -0.10938,-1.23438 -0.625,-1.85938 -0.79688,-0.96875 -2.07813,-0.96875 -1.14062,0 -1.929686,0.77344 -0.789064,0.77344 -0.867184,2.05469 z m 13.60937,2.9375 1.65625,-0.26563 q 0.14063,1 0.77344,1.52344 0.63281,0.52344 1.77344,0.52344 1.15625,0 1.71093,-0.46875 0.55469,-0.46875 0.55469,-1.09375 0,-0.5625 -0.48437,-0.89063 -0.34375,-0.21875 -1.70313,-0.5625 -1.84375,-0.46875 -2.55469,-0.80468 -0.71093,-0.33594 -1.07812,-0.9375 -0.36719,-0.60157 -0.36719,-1.32032 0,-0.65625 0.30469,-1.21875 0.30469,-0.5625 0.82031,-0.9375 0.39063,-0.28125 1.0625,-0.48437 0.67188,-0.20313 1.4375,-0.20313 1.17188,0 2.04688,0.33594 0.875,0.33594 1.28906,0.90625 0.41406,0.57031 0.57031,1.52344 l -1.625,0.21875 q -0.10937,-0.75 -0.64844,-1.17969 -0.53906,-0.42969 -1.50781,-0.42969 -1.15625,0 -1.64062,0.38282 -0.48438,0.38281 -0.48438,0.88281 0,0.32812 0.20313,0.59375 0.20312,0.26562 0.64062,0.4375 0.25,0.0937 1.46875,0.4375 1.76563,0.46875 2.46875,0.76562 0.70313,0.29688 1.10156,0.875 0.39844,0.57813 0.39844,1.4375 0,0.82813 -0.48437,1.57032 -0.48438,0.74218 -1.40625,1.14062 -0.92188,0.39844 -2.07813,0.39844 -1.92187,0 -2.92969,-0.79688 -1.00781,-0.79687 -1.28906,-2.35937 z m 10.01563,-8.75 0,-1.90625 1.67187,0 0,1.90625 -1.67187,0 z m 0,11.6875 0,-9.85938 1.67187,0 0,9.85938 -1.67187,0 z m 3.26562,0 0,-1.35938 6.26563,-7.1875 q -1.0625,0.0469 -1.875,0.0469 l -4.01563,0 0,-1.35938 8.04688,0 0,1.10938 -5.34375,6.25 -1.01563,1.14062 q 1.10938,-0.0781 2.09376,-0.0781 l 4.5625,0 0,1.4375 -8.71876,0 z m 16.95313,-3.17188 1.71875,0.21875 q -0.40625,1.5 -1.50781,2.33594 -1.10156,0.83594 -2.82031,0.83594 -2.15625,0 -3.42188,-1.32813 -1.26562,-1.32812 -1.26562,-3.73437 0,-2.48438 1.27344,-3.85938 1.27343,-1.375 3.32031,-1.375 1.98437,0 3.23437,1.34375 1.25,1.34375 1.25,3.79688 0,0.14062 -0.0156,0.4375 l -7.34375,0 q 0.0937,1.625 0.92187,2.48437 0.82813,0.85938 2.0625,0.85938 0.90625,0 1.55469,-0.47656 0.64844,-0.47657 1.03906,-1.53907 z m -5.48437,-2.70312 5.5,0 q -0.10938,-1.23438 -0.625,-1.85938 -0.79688,-0.96875 -2.07813,-0.96875 -1.14062,0 -1.92968,0.77344 -0.78907,0.77344 -0.86719,2.05469 z"
     id="path5236"
     style="fill:#000000;fill-rule:nonzero" />
  <path
     d="m 9.1515582,91.183478 110.0472518,0 0,45.070862 -110.0472518,0 z"
     id="path5238"
     style="fill:#cfe2f3;fill-rule:nonzero;stroke:#073763;stroke-width:2;stroke-linecap:butt;stroke-linejoin:round" />
  <path
     d="m 34.303375,106.53622 1.71875,0.21875 q -0.40625,1.5 -1.50781,2.33594 -1.101565,0.83593 -2.820315,0.83593 -2.15625,0 -3.421875,-1.32812 -1.265625,-1.32813 -1.265625,-3.73438 0,-2.48437 1.273435,-3.85937 1.27344,-1.375002 3.320315,-1.375002 1.984375,0 3.234375,1.343752 1.25,1.34375 1.25,3.79687 0,0.14063 -0.01563,0.4375 l -7.34375,0 q 0.09375,1.625 0.921875,2.48438 0.828125,0.85937 2.0625,0.85937 0.90625,0 1.55469,-0.47656 0.648435,-0.47656 1.03906,-1.53906 z m -5.484375,-2.70313 5.5,0 q -0.109375,-1.23437 -0.625,-1.85937 -0.796875,-0.96875 -2.078125,-0.96875 -1.140625,0 -1.92969,0.77344 -0.78906,0.77343 -0.867185,2.05468 z m 9.109375,5.875 0,-9.859372 1.5,0 0,1.406252 q 1.09375,-1.625002 3.140625,-1.625002 0.890625,0 1.640625,0.32031 0.75,0.320312 1.11719,0.843752 0.367185,0.52344 0.523435,1.22656 0.09375,0.46875 0.09375,1.625 l 0,6.0625 -1.671875,0 0,-6 q 0,-1.01562 -0.19531,-1.52343 -0.195315,-0.50782 -0.695315,-0.80469 -0.5,-0.29688 -1.171875,-0.29688 -1.0625,0 -1.83594,0.67188 -0.773435,0.67187 -0.773435,2.57812 l 0,5.375 -1.671875,0 z m 16.8125,-3.60937 1.64062,0.21875 q -0.26562,1.6875 -1.375,2.64844 -1.10937,0.96093 -2.73437,0.96093 -2.015625,0 -3.24219,-1.32031 -1.22656,-1.32031 -1.22656,-3.78906 0,-1.59375 0.52344,-2.78906 0.523435,-1.19532 1.60937,-1.79688 1.08594,-0.601562 2.35156,-0.601562 1.60938,0 2.625,0.812502 1.01563,0.8125 1.3125,2.3125 l -1.625,0.25 q -0.23437,-1 -0.82812,-1.5 -0.59375,-0.5 -1.42188,-0.5 -1.26562,0 -2.05468,0.90625 -0.789065,0.90625 -0.789065,2.85937 0,1.98438 0.765625,2.88282 0.76562,0.89843 1.98437,0.89843 0.98438,0 1.64063,-0.60156 0.65625,-0.60156 0.84375,-1.85156 z m 2.26562,-1.3125 q 0,-2.73438 1.53125,-4.0625 1.26563,-1.093752 3.09375,-1.093752 2.03125,0 3.32032,1.335942 1.28906,1.33593 1.28906,3.67968 0,1.90625 -0.57031,2.99219 -0.57032,1.08594 -1.65625,1.6875 -1.08594,0.60156 -2.38282,0.60156 -2.0625,0 -3.34375,-1.32812 -1.28125,-1.32813 -1.28125,-3.8125 z m 1.71875,0 q 0,1.89062 0.82813,2.82812 0.82812,0.9375 2.07812,0.9375 1.25,0 2.07032,-0.94531 0.82031,-0.94531 0.82031,-2.88281 0,-1.82813 -0.82813,-2.76563 -0.82812,-0.9375 -2.0625,-0.9375 -1.25,0 -2.07812,0.9375 -0.82813,0.9375 -0.82813,2.82813 z m 15.67188,4.92187 0,-1.25 q -0.9375,1.46875 -2.75,1.46875 -1.17188,0 -2.16406,-0.64843 -0.99219,-0.64844 -1.53125,-1.8125 -0.53907,-1.16407 -0.53907,-2.67969 0,-1.46875 0.49219,-2.67188 0.49219,-1.20312 1.46875,-1.84375 0.97656,-0.640622 2.19531,-0.640622 0.89063,0 1.58594,0.375002 0.69531,0.375 1.13281,0.98437 l 0,-4.875002 1.65625,0 0,13.593752 -1.54687,0 z m -5.28125,-4.92187 q 0,1.89062 0.80469,2.82812 0.80468,0.9375 1.88281,0.9375 1.09375,0 1.85937,-0.89062 0.76563,-0.89063 0.76563,-2.73438 0,-2.01562 -0.78125,-2.96093 -0.78125,-0.94532 -1.92188,-0.94532 -1.10937,0 -1.85937,0.90625 -0.75,0.90625 -0.75,2.85938 z m 9.28125,-6.765632 0,-1.90625 1.67188,0 0,1.90625 -1.67188,0 z m 0,11.687502 0,-9.859372 1.67188,0 0,9.859372 -1.67188,0 z m 4.125,0 0,-9.859372 1.5,0 0,1.406252 q 1.09375,-1.625002 3.14063,-1.625002 0.89062,0 1.64062,0.32031 0.75,0.320312 1.11719,0.843752 0.36719,0.52344 0.52344,1.22656 0.0937,0.46875 0.0937,1.625 l 0,6.0625 -1.67188,0 0,-6 q 0,-1.01562 -0.19531,-1.52343 -0.19531,-0.50782 -0.69531,-0.80469 -0.5,-0.29688 -1.17188,-0.29688 -1.0625,0 -1.83594,0.67188 -0.77343,0.67187 -0.77343,2.57812 l 0,5.375 -1.67188,0 z m 10.09375,0.8125 1.60938,0.25 q 0.10937,0.75 0.57812,1.09375 0.60938,0.45313 1.6875,0.45313 1.17188,0 1.79688,-0.46094 0.625,-0.46094 0.85937,-1.28906 0.125,-0.51563 0.10938,-2.15625 -1.09375,1.29687 -2.71875,1.29687 -2.03125,0 -3.14844,-1.46875 -1.11719,-1.46875 -1.11719,-3.51562 0,-1.40625 0.51563,-2.60156 0.51562,-1.19532 1.48437,-1.84375 0.96875,-0.648442 2.26563,-0.648442 1.75,0 2.875,1.406252 l 0,-1.187502 1.546875,0 0,8.515622 q 0,2.3125 -0.46875,3.27344 -0.46875,0.96094 -1.484375,1.51563 -1.01563,0.55468 -2.5,0.55468 -1.76563,0 -2.85157,-0.79687 -1.08593,-0.79688 -1.03906,-2.39063 z m 1.375,-5.92187 q 0,1.95312 0.77344,2.84375 0.77344,0.89062 1.92969,0.89062 1.14062,0 1.92187,-0.89062 0.78125,-0.89063 0.78125,-2.78125 0,-1.8125 -0.80469,-2.72656 -0.80468,-0.91407 -1.92968,-0.91407 -1.10938,0 -1.89063,0.89844 -0.78125,0.89844 -0.78125,2.67969 z"
     id="path5240"
     style="fill:#000000;fill-rule:nonzero" />
  <path
     d="m 18.240875,134.48934 0,-13.64062 1.53125,0 0,1.28125 q 0.53125,-0.75 1.21094,-1.125 0.679685,-0.375 1.63281,-0.375 1.265625,0 2.234375,0.64844 0.96875,0.64843 1.460935,1.83593 0.49219,1.1875 0.49219,2.59375 0,1.51563 -0.546875,2.72657 -0.546875,1.21093 -1.578125,1.85156 -1.03125,0.64062 -2.171875,0.64062 -0.84375,0 -1.507815,-0.35156 -0.66406,-0.35156 -1.085935,-0.88281 l 0,4.79687 -1.671875,0 z m 1.515625,-8.65625 q 0,1.90625 0.773435,2.8125 0.77344,0.90625 1.86719,0.90625 1.109375,0 1.89844,-0.9375 0.78906,-0.9375 0.78906,-2.92187 0,-1.875 -0.77344,-2.8125 -0.773435,-0.9375 -1.85156,-0.9375 -1.0625,0 -1.88281,1 -0.820315,1 -0.820315,2.89062 z m 15.296875,3.65625 q -0.9375,0.79688 -1.796875,1.11719 -0.859375,0.32031 -1.84375,0.32031 -1.609375,0 -2.484375,-0.78906 -0.875,-0.78906 -0.875,-2.02344 0,-0.73437 0.328125,-1.32812 0.328125,-0.59375 0.859375,-0.95313 0.53125,-0.35937 1.203125,-0.54687 0.5,-0.14063 1.484375,-0.25 2.03125,-0.25 2.984375,-0.57813 0,-0.34375 0,-0.4375 0,-1.01562 -0.46875,-1.4375 -0.640625,-0.5625 -1.90625,-0.5625 -1.171875,0 -1.734375,0.40625 -0.5625,0.40625 -0.828125,1.46875 l -1.640625,-0.23437 q 0.234375,-1.04688 0.74219,-1.6875 0.50781,-0.64063 1.46875,-0.99219 0.960935,-0.35156 2.242185,-0.35156 1.265625,0 2.046875,0.29687 0.78125,0.29688 1.15625,0.75 0.375,0.45313 0.515625,1.14063 0.09375,0.42187 0.09375,1.53125 l 0,2.23437 q 0,2.32813 0.101565,2.94532 0.10156,0.61718 0.429685,1.17968 l -1.75,0 q -0.265625,-0.51562 -0.328125,-1.21875 z m -0.140625,-3.71875 q -0.90625,0.35938 -2.734375,0.625 -1.03125,0.14063 -1.453125,0.32813 -0.421875,0.1875 -0.65625,0.54687 -0.234375,0.35938 -0.234375,0.79688 0,0.67187 0.50781,1.11719 0.507815,0.44531 1.476565,0.44531 0.96875,0 1.71875,-0.42969 0.75,-0.42969 1.109375,-1.14844 0.265625,-0.57812 0.265625,-1.67187 l 0,-0.60938 z m 4.0625,4.9375 0,-9.85937 1.5,0 0,1.5 q 0.578125,-1.04688 1.0625,-1.38281 0.484375,-0.33594 1.078125,-0.33594 0.84375,0 1.71875,0.54687 l -0.578125,1.54688 q -0.609375,-0.35938 -1.234375,-0.35938 -0.546875,0 -0.97656,0.32813 -0.42969,0.32812 -0.61719,0.90625 -0.28125,0.89062 -0.28125,1.95312 l 0,5.15625 -1.671875,0 z m 12.671875,-1.21875 q -0.9375,0.79688 -1.796875,1.11719 -0.859375,0.32031 -1.84375,0.32031 -1.609375,0 -2.484375,-0.78906 -0.875,-0.78906 -0.875,-2.02344 0,-0.73437 0.328125,-1.32812 0.328125,-0.59375 0.859375,-0.95313 0.53125,-0.35937 1.203125,-0.54687 0.5,-0.14063 1.484375,-0.25 2.03125,-0.25 2.98437,-0.57813 0,-0.34375 0,-0.4375 0,-1.01562 -0.46875,-1.4375 -0.64062,-0.5625 -1.906245,-0.5625 -1.171875,0 -1.734375,0.40625 -0.5625,0.40625 -0.828125,1.46875 l -1.640625,-0.23437 q 0.234375,-1.04688 0.74219,-1.6875 0.50781,-0.64063 1.46875,-0.99219 0.960935,-0.35156 2.242185,-0.35156 1.265625,0 2.046875,0.29687 0.78125,0.29688 1.15625,0.75 0.375,0.45313 0.51562,1.14063 0.0937,0.42187 0.0937,1.53125 l 0,2.23437 q 0,2.32813 0.10157,2.94532 0.10156,0.61718 0.42968,1.17968 l -1.75,0 q -0.26562,-0.51562 -0.32812,-1.21875 z m -0.14063,-3.71875 q -0.90625,0.35938 -2.73437,0.625 -1.03125,0.14063 -1.453125,0.32813 -0.421875,0.1875 -0.65625,0.54687 -0.234375,0.35938 -0.234375,0.79688 0,0.67187 0.50781,1.11719 0.507815,0.44531 1.476565,0.44531 0.96875,0 1.71875,-0.42969 0.749995,-0.42969 1.109375,-1.14844 0.26562,-0.57812 0.26562,-1.67187 l 0,-0.60938 z m 4.07813,4.9375 0,-9.85937 1.5,0 0,1.39062 q 0.45312,-0.71875 1.22656,-1.16406 0.77344,-0.44531 1.75781,-0.44531 1.09375,0 1.79688,0.45312 0.70312,0.45313 0.98437,1.28125 1.17188,-1.73437 3.04688,-1.73437 1.46875,0 2.25781,0.8125 0.78906,0.8125 0.78906,2.5 l 0,6.76562 -1.67187,0 0,-6.20312 q 0,-1 -0.15625,-1.44531 -0.15625,-0.44532 -0.58594,-0.71094 -0.42969,-0.26563 -1.00781,-0.26563 -1.03125,0 -1.71875,0.6875 -0.6875,0.6875 -0.6875,2.21875 l 0,5.71875 -1.67188,0 0,-6.40625 q 0,-1.10937 -0.40625,-1.66406 -0.40625,-0.55469 -1.34375,-0.55469 -0.70312,0 -1.30468,0.36719 -0.60157,0.36719 -0.86719,1.08594 -0.26563,0.71875 -0.26563,2.0625 l 0,5.10937 -1.67187,0 z m 22.28125,-3.17187 1.71875,0.21875 q -0.40625,1.5 -1.50781,2.33594 -1.10157,0.83593 -2.82032,0.83593 -2.15625,0 -3.42187,-1.32812 -1.26563,-1.32813 -1.26563,-3.73438 0,-2.48437 1.27344,-3.85937 1.27344,-1.375 3.32031,-1.375 1.98438,0 3.23438,1.34375 1.25,1.34375 1.25,3.79687 0,0.14063 -0.0156,0.4375 l -7.34376,0 q 0.0937,1.625 0.92188,2.48438 0.82812,0.85937 2.0625,0.85937 0.90625,0 1.55469,-0.47656 0.64843,-0.47656 1.03906,-1.53906 z m -5.48438,-2.70313 5.5,0 q -0.10937,-1.23437 -0.625,-1.85937 -0.79687,-0.96875 -2.07812,-0.96875 -1.14063,0 -1.92969,0.77344 -0.78906,0.77343 -0.86719,2.05468 z m 12.76563,4.375 0.23438,1.48438 q -0.70313,0.14062 -1.26563,0.14062 -0.90625,0 -1.40625,-0.28906 -0.5,-0.28906 -0.70312,-0.75 -0.20313,-0.46094 -0.20313,-1.97656 l 0,-5.65625 -1.23437,0 0,-1.3125 1.23437,0 0,-2.4375 1.65625,-1 0,3.4375 1.6875,0 0,1.3125 -1.6875,0 0,5.75 q 0,0.71875 0.0859,0.92187 0.0859,0.20313 0.28906,0.32813 0.20313,0.125 0.57813,0.125 0.26562,0 0.73437,-0.0781 z m 8.28125,-1.67187 1.71875,0.21875 q -0.40625,1.5 -1.50781,2.33594 -1.10156,0.83593 -2.82031,0.83593 -2.15625,0 -3.42188,-1.32812 -1.26562,-1.32813 -1.26562,-3.73438 0,-2.48437 1.27343,-3.85937 1.27344,-1.375 3.32032,-1.375 1.98437,0 3.23437,1.34375 1.25,1.34375 1.25,3.79687 0,0.14063 -0.0156,0.4375 l -7.34375,0 q 0.0937,1.625 0.92187,2.48438 0.82813,0.85937 2.0625,0.85937 0.90625,0 1.55469,-0.47656 0.64844,-0.47656 1.03906,-1.53906 z m -5.48437,-2.70313 5.5,0 q -0.10938,-1.23437 -0.625,-1.85937 -0.79688,-0.96875 -2.07813,-0.96875 -1.14062,0 -1.92969,0.77344 -0.78906,0.77343 -0.86718,2.05468 z m 9.09375,5.875 0,-9.85937 1.5,0 0,1.5 q 0.57812,-1.04688 1.0625,-1.38281 0.484375,-0.33594 1.078125,-0.33594 0.84375,0 1.71875,0.54687 l -0.57812,1.54688 q -0.60938,-0.35938 -1.23438,-0.35938 -0.54687,0 -0.976565,0.32813 -0.42969,0.32812 -0.61719,0.90625 -0.28125,0.89062 -0.28125,1.95312 l 0,5.15625 -1.67187,0 z m 5.562505,-2.9375 1.65625,-0.26562 q 0.14062,1 0.77343,1.52344 0.63282,0.52343 1.77344,0.52343 1.15625,0 1.71094,-0.46875 0.55469,-0.46875 0.55469,-1.09375 0,-0.5625 -0.48438,-0.89062 -0.34375,-0.21875 -1.70312,-0.5625 -1.84375,-0.46875 -2.55469,-0.80469 -0.71094,-0.33594 -1.07813,-0.9375 -0.36718,-0.60156 -0.36718,-1.32031 0,-0.65625 0.30468,-1.21875 0.30469,-0.5625 0.82032,-0.9375 0.39062,-0.28125 1.0625,-0.48438 0.67187,-0.20312 1.4375,-0.20312 1.17187,0 2.04687,0.33594 0.875,0.33593 1.28906,0.90625 0.41407,0.57031 0.57032,1.52343 l -1.625,0.21875 q -0.10938,-0.75 -0.64844,-1.17968 -0.53906,-0.42969 -1.50781,-0.42969 -1.15625,0 -1.64063,0.38281 -0.48437,0.38281 -0.48437,0.88281 0,0.32813 0.20312,0.59375 0.20313,0.26563 0.64063,0.4375 0.25,0.0937 1.46875,0.4375 1.76562,0.46875 2.46875,0.76563 0.70312,0.29687 1.10156,0.875 0.39844,0.57812 0.39844,1.4375 0,0.82812 -0.48438,1.57031 -0.48437,0.74219 -1.40625,1.14063 -0.92187,0.39843 -2.07812,0.39843 -1.92188,0 -2.92969,-0.79687 -1.00781,-0.79688 -1.28906,-2.35938 z"
     id="path5242"
     style="fill:#000000;fill-rule:nonzero" />
  <rect
     style="fill:none;stroke:none"
     id="rect5252"
     width="360.26492"
     height="189.84019"
     x="0"
     y="0" />
</svg>
