<?xml version="1.0" encoding="UTF-8" standalone="no"?>
<svg
   xmlns:dc="http://purl.org/dc/elements/1.1/"
   xmlns:cc="http://creativecommons.org/ns#"
   xmlns:rdf="http://www.w3.org/1999/02/22-rdf-syntax-ns#"
   xmlns:svg="http://www.w3.org/2000/svg"
   xmlns="http://www.w3.org/2000/svg"
   xmlns:sodipodi="http://sodipodi.sourceforge.net/DTD/sodipodi-0.dtd"
   xmlns:inkscape="http://www.inkscape.org/namespaces/inkscape"
   version="1.1"
   viewBox="0.0 0.0 960.0 720.0"
   stroke-miterlimit="10"
   id="svg4434"
   inkscape:version="0.47 r22583"
   width="100%"
   height="100%"
   sodipodi:docname="Tahoe-MerkleTree.pdf"
   stroke-linecap="square"
   stroke="none"
   fill="none">
  <metadata
     id="metadata4538">
    <rdf:RDF>
      <cc:Work
         rdf:about="">
        <dc:format>image/svg+xml</dc:format>
        <dc:type
           rdf:resource="http://purl.org/dc/dcmitype/StillImage" />
        <dc:title></dc:title>
      </cc:Work>
    </rdf:RDF>
  </metadata>
  <defs
     id="defs4536">
    <inkscape:perspective
       sodipodi:type="inkscape:persp3d"
       inkscape:vp_x="0 : 360 : 1"
       inkscape:vp_y="0 : 1000 : 0"
       inkscape:vp_z="960 : 360 : 1"
       inkscape:persp3d-origin="480 : 240 : 1"
       id="perspective4540" />
  </defs>
  <sodipodi:namedview
     pagecolor="#ffffff"
     bordercolor="#666666"
     borderopacity="1"
     objecttolerance="10"
     gridtolerance="10"
     guidetolerance="10"
     inkscape:pageopacity="0"
     inkscape:pageshadow="2"
     inkscape:window-width="1280"
     inkscape:window-height="997"
     id="namedview4534"
     showgrid="false"
     inkscape:zoom="0.92709556"
     inkscape:cx="94.536965"
     inkscape:cy="431.28276"
     inkscape:window-x="1280"
     inkscape:window-y="0"
     inkscape:window-maximized="1"
     inkscape:current-layer="svg4434" />
  <path
     d="M175.72441 144.93701L175.72441 144.93701C175.72441 132.32578 185.94783 122.10236 198.55905 122.10236L198.55905 122.10236C204.61517 122.10236 210.42326 124.50815 214.70558 128.79048C218.98792 133.0728 221.3937 138.88089 221.3937 144.93701L221.3937 144.93701C221.3937 157.54823 211.17029 167.77165 198.55905 167.77165L198.55905 167.77165C185.94783 167.77165 175.72441 157.54823 175.72441 144.93701Z"
     id="path4436"
     stroke-linejoin="round"
     stroke-linecap="butt"
     stroke-width="2.0"
     stroke="#073763"
     fill-rule="nonzero"
     fill="#cfe2f3" />
  <path
     d="M186.98093 142.93701L186.98093 135.06201L188.0278 135.06201L188.0278 138.29639L192.12155 138.29639L192.12155 135.06201L193.16843 135.06201L193.16843 142.93701L192.12155 142.93701L192.12155 139.21826L188.0278 139.21826L188.0278 142.93701L186.98093 142.93701ZM198.26218 142.23389Q197.7153 142.68701 197.22311 142.87451Q196.73093 143.06201 196.1528 143.06201Q195.2153 143.06201 194.70749 142.60107Q194.19968 142.14014 194.19968 141.43701Q194.19968 141.01514 194.39499 140.67139Q194.5903 140.32764 194.89499 140.1167Q195.19968 139.90576 195.5903 139.79639Q195.87155 139.71826 196.44968 139.65576Q197.62155 139.51514 198.16843 139.31201Q198.18405 139.12451 198.18405 139.06201Q198.18405 138.46826 197.9028 138.23389Q197.54343 137.90576 196.80905 137.90576Q196.12155 137.90576 195.80124 138.14014Q195.48093 138.37451 195.32468 138.98389L194.37155 138.85889Q194.49655 138.24951 194.79343 137.87451Q195.0903 137.49951 195.6528 137.3042Q196.2153 137.10889 196.94968 137.10889Q197.68405 137.10889 198.13718 137.28076Q198.5903 137.45264 198.80124 137.71045Q199.01218 137.96826 199.10593 138.35889Q199.1528 138.60889 199.1528 139.26514L199.1528 140.54639Q199.1528 141.89014 199.2153 142.24951Q199.2778 142.60889 199.4653 142.93701L198.44968 142.93701Q198.29343 142.64014 198.26218 142.23389ZM198.16843 140.07764Q197.6528 140.29639 196.5903 140.43701Q195.99655 140.53076 195.75436 140.63232Q195.51218 140.73389 195.37155 140.94482Q195.23093 141.15576 195.23093 141.40576Q195.23093 141.79639 195.5278 142.0542Q195.82468 142.31201 196.38718 142.31201Q196.94968 142.31201 197.37936 142.06201Q197.80905 141.81201 198.0278 141.39014Q198.16843 141.06201 198.16843 140.42139L198.16843 140.07764ZM200.07468 141.23389L201.0278 141.07764Q201.10593 141.65576 201.47311 141.96045Q201.8403 142.26514 202.49655 142.26514Q203.16843 142.26514 203.48874 141.99951Q203.80905 141.73389 203.80905 141.35889Q203.80905 141.03076 203.5278 140.84326Q203.32468 140.71826 202.54343 140.51514Q201.48093 140.24951 201.06686 140.0542Q200.6528 139.85889 200.44186 139.51514Q200.23093 139.17139 200.23093 138.74951Q200.23093 138.35889 200.4028 138.03857Q200.57468 137.71826 200.88718 137.49951Q201.10593 137.32764 201.49655 137.21826Q201.88718 137.10889 202.32468 137.10889Q202.99655 137.10889 203.50436 137.29639Q204.01218 137.48389 204.25436 137.81982Q204.49655 138.15576 204.5903 138.70264L203.6528 138.82764Q203.57468 138.39014 203.26999 138.14795Q202.9653 137.90576 202.4028 137.90576Q201.73093 137.90576 201.44968 138.12451Q201.16843 138.34326 201.16843 138.64014Q201.16843 138.82764 201.2778 138.96826Q201.4028 139.12451 201.6528 139.23389Q201.79343 139.28076 202.51218 139.48389Q203.5278 139.74951 203.93405 139.92139Q204.3403 140.09326 204.57468 140.4292Q204.80905 140.76514 204.80905 141.26514Q204.80905 141.74951 204.5278 142.17139Q204.24655 142.59326 203.7153 142.82764Q203.18405 143.06201 202.51218 143.06201Q201.4028 143.06201 200.81686 142.60107Q200.23093 142.14014 200.07468 141.23389ZM205.7778 142.93701L205.7778 135.06201L206.74655 135.06201L206.74655 137.89014Q207.43405 137.10889 208.4653 137.10889Q209.0903 137.10889 209.55905 137.35889Q210.0278 137.60889 210.23093 138.04639Q210.43405 138.48389 210.43405 139.32764L210.43405 142.93701L209.4653 142.93701L209.4653 139.32764Q209.4653 138.59326 209.1528 138.26514Q208.8403 137.93701 208.26218 137.93701Q207.82468 137.93701 207.44968 138.15576Q207.07468 138.37451 206.91061 138.75732Q206.74655 139.14014 206.74655 139.81201L206.74655 142.93701L205.7778 142.93701Z"
     id="path4438"
     fill-rule="nonzero"
     fill="#000000" />
  <path
     d="M191.30905 151.04639Q191.30905 149.65576 191.59811 148.8042Q191.88718 147.95264 192.45749 147.4917Q193.0278 147.03076 193.88718 147.03076Q194.51218 147.03076 194.98874 147.28857Q195.4653 147.54639 195.7778 148.02295Q196.0903 148.49951 196.26999 149.19482Q196.44968 149.89014 196.44968 151.04639Q196.44968 152.43701 196.16061 153.28857Q195.87155 154.14014 195.30905 154.60889Q194.74655 155.07764 193.88718 155.07764Q192.74655 155.07764 192.0903 154.24951Q191.30905 153.26514 191.30905 151.04639ZM192.30905 151.04639Q192.30905 152.99951 192.76218 153.64014Q193.2153 154.28076 193.88718 154.28076Q194.54343 154.28076 194.99655 153.63232Q195.44968 152.98389 195.44968 151.04639Q195.44968 149.10889 194.99655 148.46826Q194.54343 147.82764 193.87155 147.82764Q193.19968 147.82764 192.80905 148.39014Q192.30905 149.10889 192.30905 151.04639ZM197.12155 152.57764L197.12155 151.60889L200.0903 151.60889L200.0903 152.57764L197.12155 152.57764ZM204.41843 154.93701L203.44968 154.93701L203.44968 148.78076Q203.10593 149.10889 202.54343 149.44482Q201.98093 149.78076 201.5278 149.93701L201.5278 148.99951Q202.3403 148.62451 202.94186 148.08545Q203.54343 147.54639 203.79343 147.03076L204.41843 147.03076L204.41843 154.93701Z"
     id="path4440"
     fill-rule="nonzero"
     fill="#000000" />
  <path
     d="M175.72441 66.74803L175.72441 66.74803C175.72441 54.136806 185.94783 43.913387 198.55905 43.913387L198.55905 43.913387C204.61517 43.913387 210.42326 46.31917 214.70558 50.601498C218.98792 54.883827 221.3937 60.691906 221.3937 66.74803L221.3937 66.74803C221.3937 79.35926 211.17029 89.58268 198.55905 89.58268L198.55905 89.58268C185.94783 89.58268 175.72441 79.35926 175.72441 66.74803Z"
     id="path4442"
     stroke-linejoin="round"
     stroke-linecap="butt"
     stroke-width="2.0"
     stroke="#073763"
     fill-rule="nonzero"
     fill="#cfe2f3" />
  <path
     d="M17.115486 51.34646L108.391075 51.34646L108.391075 82.149605L17.115486 82.149605Z"
     id="path4444"
     stroke-linejoin="round"
     stroke-linecap="butt"
     stroke-width="2.0"
     stroke="#073763"
     fill-rule="nonzero" />
  <path
     d="M30.93463 68.864296L32.622128 68.72367Q32.747128 69.739296 33.184628 70.395546Q33.622128 71.051796 34.551815 71.458046Q35.481503 71.864296 36.637753 71.864296Q37.669003 71.864296 38.458065 71.551796Q39.247128 71.239296 39.637753 70.708046Q40.028378 70.176796 40.028378 69.551796Q40.028378 68.91117 39.653378 68.43461Q39.278378 67.958046 38.419003 67.62992Q37.872128 67.41117 35.997128 66.96586Q34.122128 66.520546 33.372128 66.114296Q32.403378 65.59867 31.926817 64.84867Q31.450254 64.09867 31.450254 63.16117Q31.450254 62.12992 32.03619 61.231483Q32.622128 60.333046 33.739315 59.87211Q34.856503 59.41117 36.231503 59.41117Q37.747128 59.41117 38.903378 59.895546Q40.059628 60.37992 40.676815 61.325233Q41.294003 62.270546 41.340878 63.47367L39.622128 63.59867Q39.481503 62.31742 38.676815 61.65336Q37.872128 60.989296 36.309628 60.989296Q34.684628 60.989296 33.934628 61.59086Q33.184628 62.19242 33.184628 63.03617Q33.184628 63.770546 33.715878 64.239296Q34.231503 64.708046 36.426815 65.208046Q38.622128 65.708046 39.434628 66.083046Q40.622128 66.62992 41.19244 67.46586Q41.762753 68.301796 41.762753 69.395546Q41.762753 70.489296 41.137753 71.45023Q40.512753 72.41117 39.34869 72.94242Q38.184628 73.47367 36.731503 73.47367Q34.887753 73.47367 33.637753 72.93461Q32.387753 72.395546 31.676817 71.31742Q30.96588 70.239296 30.93463 68.864296ZM43.762753 73.239296L43.762753 59.645546L45.434628 59.645546L45.434628 64.520546Q46.606503 63.16117 48.387753 63.16117Q49.481503 63.16117 50.28619 63.59086Q51.090878 64.020546 51.44244 64.78617Q51.794003 65.551796 51.794003 66.989296L51.794003 73.239296L50.122128 73.239296L50.122128 66.989296Q50.122128 65.739296 49.575253 65.16898Q49.028378 64.59867 48.044003 64.59867Q47.294003 64.59867 46.645565 64.98148Q45.997128 65.364296 45.715878 66.02836Q45.434628 66.69242 45.434628 67.84867L45.434628 73.239296L43.762753 73.239296ZM60.575253 72.020546Q59.637753 72.81742 58.778378 73.13773Q57.919003 73.458046 56.934628 73.458046Q55.325253 73.458046 54.450253 72.66898Q53.575253 71.87992 53.575253 70.645546Q53.575253 69.91117 53.903378 69.31742Q54.231503 68.72367 54.762753 68.364296Q55.294003 68.00492 55.965878 67.81742Q56.465878 67.676796 57.450253 67.56742Q59.481503 67.31742 60.434628 66.989296Q60.434628 66.645546 60.434628 66.551796Q60.434628 65.53617 59.965878 65.114296Q59.325253 64.551796 58.059628 64.551796Q56.887753 64.551796 56.325253 64.958046Q55.762753 65.364296 55.497128 66.426796L53.856503 66.19242Q54.090878 65.145546 54.59869 64.50492Q55.106503 63.864296 56.06744 63.512733Q57.028378 63.16117 58.309628 63.16117Q59.575253 63.16117 60.356503 63.458046Q61.137753 63.75492 61.512753 64.208046Q61.887753 64.66117 62.028378 65.34867Q62.122128 65.770546 62.122128 66.87992L62.122128 69.114296Q62.122128 71.44242 62.22369 72.05961Q62.325253 72.676796 62.653378 73.239296L60.903378 73.239296Q60.637753 72.72367 60.575253 72.020546ZM60.434628 68.301796Q59.528378 68.66117 57.700253 68.926796Q56.669003 69.06742 56.247128 69.25492Q55.825253 69.44242 55.590878 69.801796Q55.356503 70.16117 55.356503 70.59867Q55.356503 71.270546 55.864315 71.71586Q56.372128 72.16117 57.340878 72.16117Q58.309628 72.16117 59.059628 71.73148Q59.809628 71.301796 60.169003 70.583046Q60.434628 70.00492 60.434628 68.91117L60.434628 68.301796ZM64.49713 73.239296L64.49713 63.37992L65.99713 63.37992L65.99713 64.87992Q66.57526 63.833046 67.05963 63.49711Q67.54401 63.16117 68.13776 63.16117Q68.98151 63.16117 69.85651 63.708046L69.27838 65.25492Q68.66901 64.895546 68.04401 64.895546Q67.49713 64.895546 67.067444 65.22367Q66.63776 65.551796 66.45026 66.12992Q66.16901 67.020546 66.16901 68.083046L66.16901 73.239296L64.49713 73.239296ZM77.48151 70.06742L79.20026 70.28617Q78.79401 71.78617 77.692444 72.62211Q76.59088 73.458046 74.87213 73.458046Q72.71588 73.458046 71.45026 72.12992Q70.18463 70.801796 70.18463 68.395546Q70.18463 65.91117 71.45807 64.53617Q72.73151 63.16117 74.77838 63.16117Q76.76276 63.16117 78.01276 64.50492Q79.26276 65.84867 79.26276 68.301796Q79.26276 68.44242 79.24713 68.739296L71.90338 68.739296Q71.99713 70.364296 72.82526 71.22367Q73.65338 72.083046 74.88776 72.083046Q75.79401 72.083046 76.442444 71.60648Q77.09088 71.12992 77.48151 70.06742ZM71.99713 67.364296L77.49713 67.364296Q77.38776 66.12992 76.87213 65.50492Q76.07526 64.53617 74.79401 64.53617Q73.65338 64.53617 72.86432 65.30961Q72.07526 66.083046 71.99713 67.364296ZM92.12213 73.239296L90.45026 73.239296L90.45026 62.59867Q89.85651 63.176796 88.87213 63.74711Q87.88776 64.31742 87.10651 64.614296L87.10651 62.989296Q88.51276 62.333046 89.55963 61.395546Q90.60651 60.458046 91.04401 59.583046L92.12213 59.583046L92.12213 73.239296Z"
     id="path4446"
     fill-rule="nonzero"
     fill="#000000" />
  <path
     d="M17.115486 129.53543L108.391075 129.53543L108.391075 160.33858L17.115486 160.33858Z"
     id="path4448"
     stroke-linejoin="round"
     stroke-linecap="butt"
     stroke-width="2.0"
     stroke="#073763"
     fill-rule="nonzero" />
  <path
     d="M30.93463 147.05327L32.622128 146.91264Q32.747128 147.92827 33.184628 148.58452Q33.622128 149.24077 34.551815 149.64702Q35.481503 150.05327 36.637753 150.05327Q37.669003 150.05327 38.458065 149.74077Q39.247128 149.42827 39.637753 148.89702Q40.028378 148.36577 40.028378 147.74077Q40.028378 147.10014 39.653378 146.62358Q39.278378 146.14702 38.419003 145.8189Q37.872128 145.60014 35.997128 145.15483Q34.122128 144.70952 33.372128 144.30327Q32.403378 143.78764 31.926817 143.03764Q31.450254 142.28764 31.450254 141.35014Q31.450254 140.3189 32.03619 139.42046Q32.622128 138.52202 33.739315 138.06108Q34.856503 137.60014 36.231503 137.60014Q37.747128 137.60014 38.903378 138.08452Q40.059628 138.5689 40.676815 139.5142Q41.294003 140.45952 41.340878 141.66264L39.622128 141.78764Q39.481503 140.5064 38.676815 139.84233Q37.872128 139.17827 36.309628 139.17827Q34.684628 139.17827 33.934628 139.77983Q33.184628 140.3814 33.184628 141.22514Q33.184628 141.95952 33.715878 142.42827Q34.231503 142.89702 36.426815 143.39702Q38.622128 143.89702 39.434628 144.27202Q40.622128 144.8189 41.19244 145.65483Q41.762753 146.49077 41.762753 147.58452Q41.762753 148.67827 41.137753 149.6392Q40.512753 150.60014 39.34869 151.1314Q38.184628 151.66264 36.731503 151.66264Q34.887753 151.66264 33.637753 151.12358Q32.387753 150.58452 31.676817 149.5064Q30.96588 148.42827 30.93463 147.05327ZM43.762753 151.42827L43.762753 137.83452L45.434628 137.83452L45.434628 142.70952Q46.606503 141.35014 48.387753 141.35014Q49.481503 141.35014 50.28619 141.77983Q51.090878 142.20952 51.44244 142.97514Q51.794003 143.74077 51.794003 145.17827L51.794003 151.42827L50.122128 151.42827L50.122128 145.17827Q50.122128 143.92827 49.575253 143.35796Q49.028378 142.78764 48.044003 142.78764Q47.294003 142.78764 46.645565 143.17046Q45.997128 143.55327 45.715878 144.21733Q45.434628 144.8814 45.434628 146.03764L45.434628 151.42827L43.762753 151.42827ZM60.575253 150.20952Q59.637753 151.0064 58.778378 151.3267Q57.919003 151.64702 56.934628 151.64702Q55.325253 151.64702 54.450253 150.85796Q53.575253 150.0689 53.575253 148.83452Q53.575253 148.10014 53.903378 147.5064Q54.231503 146.91264 54.762753 146.55327Q55.294003 146.1939 55.965878 146.0064Q56.465878 145.86577 57.450253 145.7564Q59.481503 145.5064 60.434628 145.17827Q60.434628 144.83452 60.434628 144.74077Q60.434628 143.72514 59.965878 143.30327Q59.325253 142.74077 58.059628 142.74077Q56.887753 142.74077 56.325253 143.14702Q55.762753 143.55327 55.497128 144.61577L53.856503 144.3814Q54.090878 143.33452 54.59869 142.6939Q55.106503 142.05327 56.06744 141.7017Q57.028378 141.35014 58.309628 141.35014Q59.575253 141.35014 60.356503 141.64702Q61.137753 141.9439 61.512753 142.39702Q61.887753 142.85014 62.028378 143.53764Q62.122128 143.95952 62.122128 145.0689L62.122128 147.30327Q62.122128 149.6314 62.22369 150.24858Q62.325253 150.86577 62.653378 151.42827L60.903378 151.42827Q60.637753 150.91264 60.575253 150.20952ZM60.434628 146.49077Q59.528378 146.85014 57.700253 147.11577Q56.669003 147.2564 56.247128 147.4439Q55.825253 147.6314 55.590878 147.99077Q55.356503 148.35014 55.356503 148.78764Q55.356503 149.45952 55.864315 149.90483Q56.372128 150.35014 57.340878 150.35014Q58.309628 150.35014 59.059628 149.92046Q59.809628 149.49077 60.169003 148.77202Q60.434628 148.1939 60.434628 147.10014L60.434628 146.49077ZM64.49713 151.42827L64.49713 141.5689L65.99713 141.5689L65.99713 143.0689Q66.57526 142.02202 67.05963 141.68608Q67.54401 141.35014 68.13776 141.35014Q68.98151 141.35014 69.85651 141.89702L69.27838 143.4439Q68.66901 143.08452 68.04401 143.08452Q67.49713 143.08452 67.067444 143.41264Q66.63776 143.74077 66.45026 144.3189Q66.16901 145.20952 66.16901 146.27202L66.16901 151.42827L64.49713 151.42827ZM77.48151 148.2564L79.20026 148.47514Q78.79401 149.97514 77.692444 150.81108Q76.59088 151.64702 74.87213 151.64702Q72.71588 151.64702 71.45026 150.3189Q70.18463 148.99077 70.18463 146.58452Q70.18463 144.10014 71.45807 142.72514Q72.73151 141.35014 74.77838 141.35014Q76.76276 141.35014 78.01276 142.6939Q79.26276 144.03764 79.26276 146.49077Q79.26276 146.6314 79.24713 146.92827L71.90338 146.92827Q71.99713 148.55327 72.82526 149.41264Q73.65338 150.27202 74.88776 150.27202Q75.79401 150.27202 76.442444 149.79546Q77.09088 149.3189 77.48151 148.2564ZM71.99713 145.55327L77.49713 145.55327Q77.38776 144.3189 76.87213 143.6939Q76.07526 142.72514 74.79401 142.72514Q73.65338 142.72514 72.86432 143.49858Q72.07526 144.27202 71.99713 145.55327ZM94.60651 149.8189L94.60651 151.42827L85.62213 151.42827Q85.60651 150.8189 85.80963 150.27202Q86.15338 149.35014 86.911194 148.45952Q87.66901 147.5689 89.09088 146.39702Q91.30963 144.58452 92.09088 143.52202Q92.87213 142.45952 92.87213 141.5064Q92.87213 140.52202 92.161194 139.83452Q91.45026 139.14702 90.30963 139.14702Q89.10651 139.14702 88.379944 139.87358Q87.65338 140.60014 87.65338 141.8814L85.93463 141.70952Q86.10651 139.78764 87.26276 138.77983Q88.41901 137.77202 90.35651 137.77202Q92.30963 137.77202 93.45026 138.85796Q94.59088 139.9439 94.59088 141.55327Q94.59088 142.36577 94.254944 143.15483Q93.91901 143.9439 93.14557 144.81108Q92.37213 145.67827 90.57526 147.20952Q89.07526 148.47514 88.64557 148.92046Q88.21588 149.36577 87.93463 149.8189L94.60651 149.8189Z"
     id="path4450"
     fill-rule="nonzero"
     fill="#000000" />
  <path
     d="M17.115486 190.54068L108.391075 190.54068L108.391075 221.34383L17.115486 221.34383Z"
     id="path4452"
     stroke-linejoin="round"
     stroke-linecap="butt"
     stroke-width="2.0"
     stroke="#073763"
     fill-rule="nonzero" />
  <path
     d="M30.93463 208.05852L32.622128 207.9179Q32.747128 208.93352 33.184628 209.58977Q33.622128 210.24602 34.551815 210.65227Q35.481503 211.05852 36.637753 211.05852Q37.669003 211.05852 38.458065 210.74602Q39.247128 210.43352 39.637753 209.90227Q40.028378 209.37102 40.028378 208.74602Q40.028378 208.1054 39.653378 207.62883Q39.278378 207.15227 38.419003 206.82414Q37.872128 206.6054 35.997128 206.16008Q34.122128 205.71477 33.372128 205.30852Q32.403378 204.7929 31.926817 204.0429Q31.450254 203.2929 31.450254 202.3554Q31.450254 201.32414 32.03619 200.4257Q32.622128 199.52727 33.739315 199.06633Q34.856503 198.6054 36.231503 198.6054Q37.747128 198.6054 38.903378 199.08977Q40.059628 199.57414 40.676815 200.51945Q41.294003 201.46477 41.340878 202.6679L39.622128 202.7929Q39.481503 201.51164 38.676815 200.84758Q37.872128 200.18352 36.309628 200.18352Q34.684628 200.18352 33.934628 200.78508Q33.184628 201.38664 33.184628 202.2304Q33.184628 202.96477 33.715878 203.43352Q34.231503 203.90227 36.426815 204.40227Q38.622128 204.90227 39.434628 205.27727Q40.622128 205.82414 41.19244 206.66008Q41.762753 207.49602 41.762753 208.58977Q41.762753 209.68352 41.137753 210.64445Q40.512753 211.6054 39.34869 212.13664Q38.184628 212.6679 36.731503 212.6679Q34.887753 212.6679 33.637753 212.12883Q32.387753 211.58977 31.676817 210.51164Q30.96588 209.43352 30.93463 208.05852ZM43.762753 212.43352L43.762753 198.83977L45.434628 198.83977L45.434628 203.71477Q46.606503 202.3554 48.387753 202.3554Q49.481503 202.3554 50.28619 202.78508Q51.090878 203.21477 51.44244 203.9804Q51.794003 204.74602 51.794003 206.18352L51.794003 212.43352L50.122128 212.43352L50.122128 206.18352Q50.122128 204.93352 49.575253 204.3632Q49.028378 203.7929 48.044003 203.7929Q47.294003 203.7929 46.645565 204.1757Q45.997128 204.55852 45.715878 205.22258Q45.434628 205.88664 45.434628 207.0429L45.434628 212.43352L43.762753 212.43352ZM60.575253 211.21477Q59.637753 212.01164 58.778378 212.33195Q57.919003 212.65227 56.934628 212.65227Q55.325253 212.65227 54.450253 211.8632Q53.575253 211.07414 53.575253 209.83977Q53.575253 209.1054 53.903378 208.51164Q54.231503 207.9179 54.762753 207.55852Q55.294003 207.19914 55.965878 207.01164Q56.465878 206.87102 57.450253 206.76164Q59.481503 206.51164 60.434628 206.18352Q60.434628 205.83977 60.434628 205.74602Q60.434628 204.7304 59.965878 204.30852Q59.325253 203.74602 58.059628 203.74602Q56.887753 203.74602 56.325253 204.15227Q55.762753 204.55852 55.497128 205.62102L53.856503 205.38664Q54.090878 204.33977 54.59869 203.69914Q55.106503 203.05852 56.06744 202.70695Q57.028378 202.3554 58.309628 202.3554Q59.575253 202.3554 60.356503 202.65227Q61.137753 202.94914 61.512753 203.40227Q61.887753 203.8554 62.028378 204.5429Q62.122128 204.96477 62.122128 206.07414L62.122128 208.30852Q62.122128 210.63664 62.22369 211.25383Q62.325253 211.87102 62.653378 212.43352L60.903378 212.43352Q60.637753 211.9179 60.575253 211.21477ZM60.434628 207.49602Q59.528378 207.8554 57.700253 208.12102Q56.669003 208.26164 56.247128 208.44914Q55.825253 208.63664 55.590878 208.99602Q55.356503 209.3554 55.356503 209.7929Q55.356503 210.46477 55.864315 210.91008Q56.372128 211.3554 57.340878 211.3554Q58.309628 211.3554 59.059628 210.9257Q59.809628 210.49602 60.169003 209.77727Q60.434628 209.19914 60.434628 208.1054L60.434628 207.49602ZM64.49713 212.43352L64.49713 202.57414L65.99713 202.57414L65.99713 204.07414Q66.57526 203.02727 67.05963 202.69133Q67.54401 202.3554 68.13776 202.3554Q68.98151 202.3554 69.85651 202.90227L69.27838 204.44914Q68.66901 204.08977 68.04401 204.08977Q67.49713 204.08977 67.067444 204.4179Q66.63776 204.74602 66.45026 205.32414Q66.16901 206.21477 66.16901 207.27727L66.16901 212.43352L64.49713 212.43352ZM77.48151 209.26164L79.20026 209.4804Q78.79401 210.9804 77.692444 211.81633Q76.59088 212.65227 74.87213 212.65227Q72.71588 212.65227 71.45026 211.32414Q70.18463 209.99602 70.18463 207.58977Q70.18463 205.1054 71.45807 203.7304Q72.73151 202.3554 74.77838 202.3554Q76.76276 202.3554 78.01276 203.69914Q79.26276 205.0429 79.26276 207.49602Q79.26276 207.63664 79.24713 207.93352L71.90338 207.93352Q71.99713 209.55852 72.82526 210.4179Q73.65338 211.27727 74.88776 211.27727Q75.79401 211.27727 76.442444 210.8007Q77.09088 210.32414 77.48151 209.26164ZM71.99713 206.55852L77.49713 206.55852Q77.38776 205.32414 76.87213 204.69914Q76.07526 203.7304 74.79401 203.7304Q73.65338 203.7304 72.86432 204.50383Q72.07526 205.27727 71.99713 206.55852ZM85.84088 208.83977L87.51276 208.62102Q87.79401 210.0429 88.48932 210.6679Q89.18463 211.2929 90.16901 211.2929Q91.35651 211.2929 92.16901 210.47258Q92.98151 209.65227 92.98151 208.44914Q92.98151 207.30852 92.223694 206.55852Q91.46588 205.80852 90.30963 205.80852Q89.84088 205.80852 89.13776 205.99602L89.32526 204.52727Q89.48151 204.5429 89.59088 204.5429Q90.65338 204.5429 91.504944 203.9882Q92.35651 203.43352 92.35651 202.27727Q92.35651 201.3554 91.73932 200.75383Q91.12213 200.15227 90.13776 200.15227Q89.16901 200.15227 88.52057 200.76164Q87.87213 201.37102 87.68463 202.6054L86.01276 202.30852Q86.30963 200.62102 87.39557 199.69914Q88.48151 198.77727 90.10651 198.77727Q91.21588 198.77727 92.15338 199.25383Q93.09088 199.7304 93.58307 200.55852Q94.07526 201.38664 94.07526 202.30852Q94.07526 203.19914 93.60651 203.9179Q93.13776 204.63664 92.20026 205.07414Q93.41901 205.33977 94.08307 206.22258Q94.74713 207.1054 94.74713 208.4179Q94.74713 210.19914 93.45026 211.43352Q92.15338 212.6679 90.16901 212.6679Q88.37213 212.6679 87.192444 211.6054Q86.01276 210.5429 85.84088 208.83977Z"
     id="path4454"
     fill-rule="nonzero"
     fill="#000000" />
  <path
     d="M17.115486 268.72964L108.391075 268.72964L108.391075 299.5328L17.115486 299.5328Z"
     id="path4456"
     stroke-linejoin="round"
     stroke-linecap="butt"
     stroke-width="2.0"
     stroke="#073763"
     fill-rule="nonzero" />
  <path
     d="M30.93463 286.2475L32.622128 286.10687Q32.747128 287.1225 33.184628 287.77875Q33.622128 288.435 34.551815 288.84125Q35.481503 289.2475 36.637753 289.2475Q37.669003 289.2475 38.458065 288.935Q39.247128 288.6225 39.637753 288.09125Q40.028378 287.56 40.028378 286.935Q40.028378 286.29437 39.653378 285.8178Q39.278378 285.34125 38.419003 285.01312Q37.872128 284.79437 35.997128 284.34906Q34.122128 283.90375 33.372128 283.4975Q32.403378 282.98187 31.926817 282.23187Q31.450254 281.48187 31.450254 280.54437Q31.450254 279.51312 32.03619 278.6147Q32.622128 277.71625 33.739315 277.2553Q34.856503 276.79437 36.231503 276.79437Q37.747128 276.79437 38.903378 277.27875Q40.059628 277.76312 40.676815 278.70844Q41.294003 279.65375 41.340878 280.85687L39.622128 280.98187Q39.481503 279.70062 38.676815 279.03656Q37.872128 278.3725 36.309628 278.3725Q34.684628 278.3725 33.934628 278.97406Q33.184628 279.57562 33.184628 280.41937Q33.184628 281.15375 33.715878 281.6225Q34.231503 282.09125 36.426815 282.59125Q38.622128 283.09125 39.434628 283.46625Q40.622128 284.01312 41.19244 284.84906Q41.762753 285.685 41.762753 286.77875Q41.762753 287.8725 41.137753 288.83344Q40.512753 289.79437 39.34869 290.32562Q38.184628 290.85687 36.731503 290.85687Q34.887753 290.85687 33.637753 290.3178Q32.387753 289.77875 31.676817 288.70062Q30.96588 287.6225 30.93463 286.2475ZM43.762753 290.6225L43.762753 277.02875L45.434628 277.02875L45.434628 281.90375Q46.606503 280.54437 48.387753 280.54437Q49.481503 280.54437 50.28619 280.97406Q51.090878 281.40375 51.44244 282.16937Q51.794003 282.935 51.794003 284.3725L51.794003 290.6225L50.122128 290.6225L50.122128 284.3725Q50.122128 283.1225 49.575253 282.5522Q49.028378 281.98187 48.044003 281.98187Q47.294003 281.98187 46.645565 282.3647Q45.997128 282.7475 45.715878 283.41156Q45.434628 284.07562 45.434628 285.23187L45.434628 290.6225L43.762753 290.6225ZM60.575253 289.40375Q59.637753 290.20062 58.778378 290.52094Q57.919003 290.84125 56.934628 290.84125Q55.325253 290.84125 54.450253 290.0522Q53.575253 289.26312 53.575253 288.02875Q53.575253 287.29437 53.903378 286.70062Q54.231503 286.10687 54.762753 285.7475Q55.294003 285.38812 55.965878 285.20062Q56.465878 285.06 57.450253 284.95062Q59.481503 284.70062 60.434628 284.3725Q60.434628 284.02875 60.434628 283.935Q60.434628 282.91937 59.965878 282.4975Q59.325253 281.935 58.059628 281.935Q56.887753 281.935 56.325253 282.34125Q55.762753 282.7475 55.497128 283.81L53.856503 283.57562Q54.090878 282.52875 54.59869 281.88812Q55.106503 281.2475 56.06744 280.89594Q57.028378 280.54437 58.309628 280.54437Q59.575253 280.54437 60.356503 280.84125Q61.137753 281.13812 61.512753 281.59125Q61.887753 282.04437 62.028378 282.73187Q62.122128 283.15375 62.122128 284.26312L62.122128 286.4975Q62.122128 288.82562 62.22369 289.4428Q62.325253 290.06 62.653378 290.6225L60.903378 290.6225Q60.637753 290.10687 60.575253 289.40375ZM60.434628 285.685Q59.528378 286.04437 57.700253 286.31Q56.669003 286.45062 56.247128 286.63812Q55.825253 286.82562 55.590878 287.185Q55.356503 287.54437 55.356503 287.98187Q55.356503 288.65375 55.864315 289.09906Q56.372128 289.54437 57.340878 289.54437Q58.309628 289.54437 59.059628 289.1147Q59.809628 288.685 60.169003 287.96625Q60.434628 287.38812 60.434628 286.29437L60.434628 285.685ZM64.49713 290.6225L64.49713 280.76312L65.99713 280.76312L65.99713 282.26312Q66.57526 281.21625 67.05963 280.8803Q67.54401 280.54437 68.13776 280.54437Q68.98151 280.54437 69.85651 281.09125L69.27838 282.63812Q68.66901 282.27875 68.04401 282.27875Q67.49713 282.27875 67.067444 282.60687Q66.63776 282.935 66.45026 283.51312Q66.16901 284.40375 66.16901 285.46625L66.16901 290.6225L64.49713 290.6225ZM77.48151 287.45062L79.20026 287.66937Q78.79401 289.16937 77.692444 290.0053Q76.59088 290.84125 74.87213 290.84125Q72.71588 290.84125 71.45026 289.51312Q70.18463 288.185 70.18463 285.77875Q70.18463 283.29437 71.45807 281.91937Q72.73151 280.54437 74.77838 280.54437Q76.76276 280.54437 78.01276 281.88812Q79.26276 283.23187 79.26276 285.685Q79.26276 285.82562 79.24713 286.1225L71.90338 286.1225Q71.99713 287.7475 72.82526 288.60687Q73.65338 289.46625 74.88776 289.46625Q75.79401 289.46625 76.442444 288.9897Q77.09088 288.51312 77.48151 287.45062ZM71.99713 284.7475L77.49713 284.7475Q77.38776 283.51312 76.87213 282.88812Q76.07526 281.91937 74.79401 281.91937Q73.65338 281.91937 72.86432 282.6928Q72.07526 283.46625 71.99713 284.7475ZM91.18463 290.6225L91.18463 287.3725L85.27838 287.3725L85.27838 285.84125L91.49713 277.02875L92.85651 277.02875L92.85651 285.84125L94.70026 285.84125L94.70026 287.3725L92.85651 287.3725L92.85651 290.6225L91.18463 290.6225ZM91.18463 285.84125L91.18463 279.70062L86.93463 285.84125L91.18463 285.84125Z"
     id="path4458"
     fill-rule="nonzero"
     fill="#000000" />
  <path
     d="M175.72441 205.94226L175.72441 205.94226C175.72441 193.33102 185.94783 183.1076 198.55905 183.1076L198.55905 183.1076C204.61517 183.1076 210.42326 185.5134 214.70558 189.79573C218.98792 194.07805 221.3937 199.88614 221.3937 205.94226L221.3937 205.94226C221.3937 218.55348 211.17029 228.7769 198.55905 228.7769L198.55905 228.7769C185.94783 228.7769 175.72441 218.55348 175.72441 205.94226Z"
     id="path4460"
     stroke-linejoin="round"
     stroke-linecap="butt"
     stroke-width="2.0"
     stroke="#073763"
     fill-rule="nonzero"
     fill="#cfe2f3" />
  <path
     d="M175.72441 284.13123L175.72441 284.13123C175.72441 271.52002 185.94783 261.2966 198.55905 261.2966L198.55905 261.2966C204.61517 261.2966 210.42326 263.70236 214.70558 267.9847C218.98792 272.26703 221.3937 278.0751 221.3937 284.13123L221.3937 284.13123C221.3937 296.74246 211.17029 306.96588 198.55905 306.96588L198.55905 306.96588C185.94783 306.96588 175.72441 296.74246 175.72441 284.13123Z"
     id="path4462"
     stroke-linejoin="round"
     stroke-linecap="butt"
     stroke-width="2.0"
     stroke="#073763"
     fill-rule="nonzero"
     fill="#cfe2f3" />
  <path
     d="M108.97113 64.60893L108.97113 64.60893L116.97113 64.60893L116.97113 66.60893L108.97113 66.60893ZM122.97113 64.60893L122.97113 64.60893L130.97113 64.60893L130.97113 66.60893L122.97113 66.60893ZM136.97113 64.60893L136.97113 64.60893L144.97113 64.60893L144.97113 66.60893L136.97113 66.60893ZM150.97113 64.60893L150.97113 64.60893L158.97113 64.60893L158.97113 66.60893L150.97113 66.60893Z"
     id="path4464"
     fill-rule="nonzero"
     fill="#073763" />
  <path
     d="M164.27821 68.91239L173.35442 65.608925L164.27821 62.305458Z"
     id="path4466"
     stroke-linecap="butt"
     stroke-width="2.0"
     stroke="#073763"
     fill-rule="evenodd"
     fill="#073763" />
  <path
     d="M108.97113 143.93701L108.97113 143.93701L116.97113 143.93701L116.97113 145.93701L108.97113 145.93701ZM122.97113 143.93701L122.97113 143.93701L130.97113 143.93701L130.97113 145.93701L122.97113 145.93701ZM136.97113 143.93701L136.97113 143.93701L144.97113 143.93701L144.97113 145.93701L136.97113 145.93701ZM150.97113 143.93701L150.97113 143.93701L158.97113 143.93701L158.97113 145.93701L150.97113 145.93701Z"
     id="path4468"
     fill-rule="nonzero"
     fill="#073763" />
  <path
     d="M164.27821 148.24048L173.35442 144.93701L164.27821 141.63354Z"
     id="path4470"
     stroke-linecap="butt"
     stroke-width="2.0"
     stroke="#073763"
     fill-rule="evenodd"
     fill="#073763" />
  <path
     d="M108.97113 204.94226L108.97113 204.94226L116.97113 204.94226L116.97113 206.94226L108.97113 206.94226ZM122.97113 204.94226L122.97113 204.94226L130.97113 204.94226L130.97113 206.94226L122.97113 206.94226ZM136.97113 204.94226L136.97113 204.94226L144.97113 204.94226L144.97113 206.94226L136.97113 206.94226ZM150.97113 204.94226L150.97113 204.94226L158.97113 204.94226L158.97113 206.94226L150.97113 206.94226Z"
     id="path4472"
     fill-rule="nonzero"
     fill="#073763" />
  <path
     d="M164.27821 209.24573L173.35442 205.94226L164.27821 202.6388Z"
     id="path4474"
     stroke-linecap="butt"
     stroke-width="2.0"
     stroke="#073763"
     fill-rule="evenodd"
     fill="#073763" />
  <path
     d="M108.97113 283.13123L108.97113 283.13123L116.97113 283.13123L116.97113 285.13123L108.97113 285.13123ZM122.97113 283.13123L122.97113 283.13123L130.97113 283.13123L130.97113 285.13123L122.97113 285.13123ZM136.97113 283.13123L136.97113 283.13123L144.97113 283.13123L144.97113 285.13123L136.97113 285.13123ZM150.97113 283.13123L150.97113 283.13123L158.97113 283.13123L158.97113 285.13123L150.97113 285.13123Z"
     id="path4476"
     fill-rule="nonzero"
     fill="#073763" />
  <path
     d="M164.27821 287.4347L173.35442 284.13123L164.27821 280.82776Z"
     id="path4478"
     stroke-linecap="butt"
     stroke-width="2.0"
     stroke="#073763"
     fill-rule="evenodd"
     fill="#073763" />
  <path
     d="M186.98093 64.74803L186.98093 56.87303L188.0278 56.87303L188.0278 60.107407L192.12155 60.107407L192.12155 56.87303L193.16843 56.87303L193.16843 64.74803L192.12155 64.74803L192.12155 61.02928L188.0278 61.02928L188.0278 64.74803L186.98093 64.74803ZM198.26218 64.04491Q197.7153 64.49803 197.22311 64.68553Q196.73093 64.87303 196.1528 64.87303Q195.2153 64.87303 194.70749 64.412094Q194.19968 63.951157 194.19968 63.24803Q194.19968 62.826157 194.39499 62.482407Q194.5903 62.138657 194.89499 61.92772Q195.19968 61.71678 195.5903 61.607407Q195.87155 61.52928 196.44968 61.46678Q197.62155 61.326157 198.16843 61.12303Q198.18405 60.93553 198.18405 60.87303Q198.18405 60.27928 197.9028 60.044907Q197.54343 59.71678 196.80905 59.71678Q196.12155 59.71678 195.80124 59.951157Q195.48093 60.18553 195.32468 60.794907L194.37155 60.669907Q194.49655 60.06053 194.79343 59.68553Q195.0903 59.31053 195.6528 59.11522Q196.2153 58.919907 196.94968 58.919907Q197.68405 58.919907 198.13718 59.09178Q198.5903 59.263657 198.80124 59.52147Q199.01218 59.77928 199.10593 60.169907Q199.1528 60.419907 199.1528 61.076157L199.1528 62.357407Q199.1528 63.701157 199.2153 64.06053Q199.2778 64.41991 199.4653 64.74803L198.44968 64.74803Q198.29343 64.45116 198.26218 64.04491ZM198.16843 61.888657Q197.6528 62.107407 196.5903 62.24803Q195.99655 62.34178 195.75436 62.443344Q195.51218 62.544907 195.37155 62.755844Q195.23093 62.96678 195.23093 63.21678Q195.23093 63.607407 195.5278 63.86522Q195.82468 64.12303 196.38718 64.12303Q196.94968 64.12303 197.37936 63.87303Q197.80905 63.62303 198.0278 63.201157Q198.16843 62.87303 198.16843 62.232407L198.16843 61.888657ZM200.07468 63.044907L201.0278 62.888657Q201.10593 63.46678 201.47311 63.77147Q201.8403 64.07616 202.49655 64.07616Q203.16843 64.07616 203.48874 63.81053Q203.80905 63.544907 203.80905 63.169907Q203.80905 62.84178 203.5278 62.65428Q203.32468 62.52928 202.54343 62.326157Q201.48093 62.06053 201.06686 61.86522Q200.6528 61.669907 200.44186 61.326157Q200.23093 60.982407 200.23093 60.56053Q200.23093 60.169907 200.4028 59.849594Q200.57468 59.52928 200.88718 59.31053Q201.10593 59.138657 201.49655 59.02928Q201.88718 58.919907 202.32468 58.919907Q202.99655 58.919907 203.50436 59.107407Q204.01218 59.294907 204.25436 59.630844Q204.49655 59.96678 204.5903 60.513657L203.6528 60.638657Q203.57468 60.201157 203.26999 59.95897Q202.9653 59.71678 202.4028 59.71678Q201.73093 59.71678 201.44968 59.93553Q201.16843 60.15428 201.16843 60.451157Q201.16843 60.638657 201.2778 60.77928Q201.4028 60.93553 201.6528 61.044907Q201.79343 61.09178 202.51218 61.294907Q203.5278 61.56053 203.93405 61.732407Q204.3403 61.90428 204.57468 62.24022Q204.80905 62.576157 204.80905 63.076157Q204.80905 63.56053 204.5278 63.982407Q204.24655 64.40428 203.7153 64.63866Q203.18405 64.87303 202.51218 64.87303Q201.4028 64.87303 200.81686 64.412094Q200.23093 63.951157 200.07468 63.044907ZM205.7778 64.74803L205.7778 56.87303L206.74655 56.87303L206.74655 59.701157Q207.43405 58.919907 208.4653 58.919907Q209.0903 58.919907 209.55905 59.169907Q210.0278 59.419907 210.23093 59.857407Q210.43405 60.294907 210.43405 61.138657L210.43405 64.74803L209.4653 64.74803L209.4653 61.138657Q209.4653 60.40428 209.1528 60.076157Q208.8403 59.74803 208.26218 59.74803Q207.82468 59.74803 207.44968 59.96678Q207.07468 60.18553 206.91061 60.568344Q206.74655 60.951157 206.74655 61.62303L206.74655 64.74803L205.7778 64.74803Z"
     id="path4480"
     fill-rule="nonzero"
     fill="#000000" />
  <path
     d="M191.30905 72.85741Q191.30905 71.46678 191.59811 70.61522Q191.88718 69.76366 192.45749 69.30272Q193.0278 68.84178 193.88718 68.84178Q194.51218 68.84178 194.98874 69.099594Q195.4653 69.35741 195.7778 69.83397Q196.0903 70.31053 196.26999 71.005844Q196.44968 71.70116 196.44968 72.85741Q196.44968 74.24803 196.16061 75.099594Q195.87155 75.95116 195.30905 76.41991Q194.74655 76.88866 193.88718 76.88866Q192.74655 76.88866 192.0903 76.06053Q191.30905 75.07616 191.30905 72.85741ZM192.30905 72.85741Q192.30905 74.81053 192.76218 75.45116Q193.2153 76.09178 193.88718 76.09178Q194.54343 76.09178 194.99655 75.443344Q195.44968 74.79491 195.44968 72.85741Q195.44968 70.91991 194.99655 70.27928Q194.54343 69.63866 193.87155 69.63866Q193.19968 69.63866 192.80905 70.20116Q192.30905 70.91991 192.30905 72.85741ZM197.12155 74.38866L197.12155 73.41991L200.0903 73.41991L200.0903 74.38866L197.12155 74.38866ZM200.7778 72.85741Q200.7778 71.46678 201.06686 70.61522Q201.35593 69.76366 201.92624 69.30272Q202.49655 68.84178 203.35593 68.84178Q203.98093 68.84178 204.45749 69.099594Q204.93405 69.35741 205.24655 69.83397Q205.55905 70.31053 205.73874 71.005844Q205.91843 71.70116 205.91843 72.85741Q205.91843 74.24803 205.62936 75.099594Q205.3403 75.95116 204.7778 76.41991Q204.2153 76.88866 203.35593 76.88866Q202.2153 76.88866 201.55905 76.06053Q200.7778 75.07616 200.7778 72.85741ZM201.7778 72.85741Q201.7778 74.81053 202.23093 75.45116Q202.68405 76.09178 203.35593 76.09178Q204.01218 76.09178 204.4653 75.443344Q204.91843 74.79491 204.91843 72.85741Q204.91843 70.91991 204.4653 70.27928Q204.01218 69.63866 203.3403 69.63866Q202.66843 69.63866 202.2778 70.20116Q201.7778 70.91991 201.7778 72.85741Z"
     id="path4482"
     fill-rule="nonzero"
     fill="#000000" />
  <path
     d="M186.98093 203.94226L186.98093 196.06726L188.0278 196.06726L188.0278 199.30164L192.12155 199.30164L192.12155 196.06726L193.16843 196.06726L193.16843 203.94226L192.12155 203.94226L192.12155 200.22351L188.0278 200.22351L188.0278 203.94226L186.98093 203.94226ZM198.26218 203.23914Q197.7153 203.69226 197.22311 203.87976Q196.73093 204.06726 196.1528 204.06726Q195.2153 204.06726 194.70749 203.60632Q194.19968 203.14539 194.19968 202.44226Q194.19968 202.02039 194.39499 201.67664Q194.5903 201.33289 194.89499 201.12195Q195.19968 200.91101 195.5903 200.80164Q195.87155 200.72351 196.44968 200.66101Q197.62155 200.52039 198.16843 200.31726Q198.18405 200.12976 198.18405 200.06726Q198.18405 199.47351 197.9028 199.23914Q197.54343 198.91101 196.80905 198.91101Q196.12155 198.91101 195.80124 199.14539Q195.48093 199.37976 195.32468 199.98914L194.37155 199.86414Q194.49655 199.25476 194.79343 198.87976Q195.0903 198.50476 195.6528 198.30945Q196.2153 198.11414 196.94968 198.11414Q197.68405 198.11414 198.13718 198.28601Q198.5903 198.45789 198.80124 198.7157Q199.01218 198.97351 199.10593 199.36414Q199.1528 199.61414 199.1528 200.27039L199.1528 201.55164Q199.1528 202.89539 199.2153 203.25476Q199.2778 203.61414 199.4653 203.94226L198.44968 203.94226Q198.29343 203.64539 198.26218 203.23914ZM198.16843 201.08289Q197.6528 201.30164 196.5903 201.44226Q195.99655 201.53601 195.75436 201.63757Q195.51218 201.73914 195.37155 201.95007Q195.23093 202.16101 195.23093 202.41101Q195.23093 202.80164 195.5278 203.05945Q195.82468 203.31726 196.38718 203.31726Q196.94968 203.31726 197.37936 203.06726Q197.80905 202.81726 198.0278 202.39539Q198.16843 202.06726 198.16843 201.42664L198.16843 201.08289ZM200.07468 202.23914L201.0278 202.08289Q201.10593 202.66101 201.47311 202.9657Q201.8403 203.27039 202.49655 203.27039Q203.16843 203.27039 203.48874 203.00476Q203.80905 202.73914 203.80905 202.36414Q203.80905 202.03601 203.5278 201.84851Q203.32468 201.72351 202.54343 201.52039Q201.48093 201.25476 201.06686 201.05945Q200.6528 200.86414 200.44186 200.52039Q200.23093 200.17664 200.23093 199.75476Q200.23093 199.36414 200.4028 199.04382Q200.57468 198.72351 200.88718 198.50476Q201.10593 198.33289 201.49655 198.22351Q201.88718 198.11414 202.32468 198.11414Q202.99655 198.11414 203.50436 198.30164Q204.01218 198.48914 204.25436 198.82507Q204.49655 199.16101 204.5903 199.70789L203.6528 199.83289Q203.57468 199.39539 203.26999 199.1532Q202.9653 198.91101 202.4028 198.91101Q201.73093 198.91101 201.44968 199.12976Q201.16843 199.34851 201.16843 199.64539Q201.16843 199.83289 201.2778 199.97351Q201.4028 200.12976 201.6528 200.23914Q201.79343 200.28601 202.51218 200.48914Q203.5278 200.75476 203.93405 200.92664Q204.3403 201.09851 204.57468 201.43445Q204.80905 201.77039 204.80905 202.27039Q204.80905 202.75476 204.5278 203.17664Q204.24655 203.59851 203.7153 203.83289Q203.18405 204.06726 202.51218 204.06726Q201.4028 204.06726 200.81686 203.60632Q200.23093 203.14539 200.07468 202.23914ZM205.7778 203.94226L205.7778 196.06726L206.74655 196.06726L206.74655 198.89539Q207.43405 198.11414 208.4653 198.11414Q209.0903 198.11414 209.55905 198.36414Q210.0278 198.61414 210.23093 199.05164Q210.43405 199.48914 210.43405 200.33289L210.43405 203.94226L209.4653 203.94226L209.4653 200.33289Q209.4653 199.59851 209.1528 199.27039Q208.8403 198.94226 208.26218 198.94226Q207.82468 198.94226 207.44968 199.16101Q207.07468 199.37976 206.91061 199.76257Q206.74655 200.14539 206.74655 200.81726L206.74655 203.94226L205.7778 203.94226Z"
     id="path4484"
     fill-rule="nonzero"
     fill="#000000" />
  <path
     d="M194.94968 215.94226L193.98093 215.94226L193.98093 209.78601Q193.63718 210.11414 193.07468 210.45007Q192.51218 210.78601 192.05905 210.94226L192.05905 210.00476Q192.87155 209.62976 193.47311 209.0907Q194.07468 208.55164 194.32468 208.03601L194.94968 208.03601L194.94968 215.94226ZM197.12155 213.58289L197.12155 212.61414L200.0903 212.61414L200.0903 213.58289L197.12155 213.58289ZM200.7778 212.05164Q200.7778 210.66101 201.06686 209.80945Q201.35593 208.95789 201.92624 208.49695Q202.49655 208.03601 203.35593 208.03601Q203.98093 208.03601 204.45749 208.29382Q204.93405 208.55164 205.24655 209.0282Q205.55905 209.50476 205.73874 210.20007Q205.91843 210.89539 205.91843 212.05164Q205.91843 213.44226 205.62936 214.29382Q205.3403 215.14539 204.7778 215.61414Q204.2153 216.08289 203.35593 216.08289Q202.2153 216.08289 201.55905 215.25476Q200.7778 214.27039 200.7778 212.05164ZM201.7778 212.05164Q201.7778 214.00476 202.23093 214.64539Q202.68405 215.28601 203.35593 215.28601Q204.01218 215.28601 204.4653 214.63757Q204.91843 213.98914 204.91843 212.05164Q204.91843 210.11414 204.4653 209.47351Q204.01218 208.83289 203.3403 208.83289Q202.66843 208.83289 202.2778 209.39539Q201.7778 210.11414 201.7778 212.05164Z"
     id="path4486"
     fill-rule="nonzero"
     fill="#000000" />
  <path
     d="M186.98093 282.13123L186.98093 274.25623L188.0278 274.25623L188.0278 277.4906L192.12155 277.4906L192.12155 274.25623L193.16843 274.25623L193.16843 282.13123L192.12155 282.13123L192.12155 278.41248L188.0278 278.41248L188.0278 282.13123L186.98093 282.13123ZM198.26218 281.4281Q197.7153 281.88123 197.22311 282.06873Q196.73093 282.25623 196.1528 282.25623Q195.2153 282.25623 194.70749 281.7953Q194.19968 281.33435 194.19968 280.63123Q194.19968 280.20935 194.39499 279.8656Q194.5903 279.52185 194.89499 279.3109Q195.19968 279.09998 195.5903 278.9906Q195.87155 278.91248 196.44968 278.84998Q197.62155 278.70935 198.16843 278.50623Q198.18405 278.31873 198.18405 278.25623Q198.18405 277.66248 197.9028 277.4281Q197.54343 277.09998 196.80905 277.09998Q196.12155 277.09998 195.80124 277.33435Q195.48093 277.56873 195.32468 278.1781L194.37155 278.0531Q194.49655 277.44373 194.79343 277.06873Q195.0903 276.69373 195.6528 276.4984Q196.2153 276.3031 196.94968 276.3031Q197.68405 276.3031 198.13718 276.47498Q198.5903 276.64685 198.80124 276.90466Q199.01218 277.16248 199.10593 277.5531Q199.1528 277.8031 199.1528 278.45935L199.1528 279.7406Q199.1528 281.08435 199.2153 281.44373Q199.2778 281.8031 199.4653 282.13123L198.44968 282.13123Q198.29343 281.83435 198.26218 281.4281ZM198.16843 279.27185Q197.6528 279.4906 196.5903 279.63123Q195.99655 279.72498 195.75436 279.82654Q195.51218 279.9281 195.37155 280.13904Q195.23093 280.34998 195.23093 280.59998Q195.23093 280.9906 195.5278 281.2484Q195.82468 281.50623 196.38718 281.50623Q196.94968 281.50623 197.37936 281.25623Q197.80905 281.00623 198.0278 280.58435Q198.16843 280.25623 198.16843 279.6156L198.16843 279.27185ZM200.07468 280.4281L201.0278 280.27185Q201.10593 280.84998 201.47311 281.15466Q201.8403 281.45935 202.49655 281.45935Q203.16843 281.45935 203.48874 281.19373Q203.80905 280.9281 203.80905 280.5531Q203.80905 280.22498 203.5278 280.03748Q203.32468 279.91248 202.54343 279.70935Q201.48093 279.44373 201.06686 279.2484Q200.6528 279.0531 200.44186 278.70935Q200.23093 278.3656 200.23093 277.94373Q200.23093 277.5531 200.4028 277.2328Q200.57468 276.91248 200.88718 276.69373Q201.10593 276.52185 201.49655 276.41248Q201.88718 276.3031 202.32468 276.3031Q202.99655 276.3031 203.50436 276.4906Q204.01218 276.6781 204.25436 277.01404Q204.49655 277.34998 204.5903 277.89685L203.6528 278.02185Q203.57468 277.58435 203.26999 277.34216Q202.9653 277.09998 202.4028 277.09998Q201.73093 277.09998 201.44968 277.31873Q201.16843 277.53748 201.16843 277.83435Q201.16843 278.02185 201.2778 278.16248Q201.4028 278.31873 201.6528 278.4281Q201.79343 278.47498 202.51218 278.6781Q203.5278 278.94373 203.93405 279.1156Q204.3403 279.28748 204.57468 279.6234Q204.80905 279.95935 204.80905 280.45935Q204.80905 280.94373 204.5278 281.3656Q204.24655 281.78748 203.7153 282.02185Q203.18405 282.25623 202.51218 282.25623Q201.4028 282.25623 200.81686 281.7953Q200.23093 281.33435 200.07468 280.4281ZM205.7778 282.13123L205.7778 274.25623L206.74655 274.25623L206.74655 277.08435Q207.43405 276.3031 208.4653 276.3031Q209.0903 276.3031 209.55905 276.5531Q210.0278 276.8031 210.23093 277.2406Q210.43405 277.6781 210.43405 278.52185L210.43405 282.13123L209.4653 282.13123L209.4653 278.52185Q209.4653 277.78748 209.1528 277.45935Q208.8403 277.13123 208.26218 277.13123Q207.82468 277.13123 207.44968 277.34998Q207.07468 277.56873 206.91061 277.95154Q206.74655 278.33435 206.74655 279.00623L206.74655 282.13123L205.7778 282.13123Z"
     id="path4488"
     fill-rule="nonzero"
     fill="#000000" />
  <path
     d="M194.94968 294.13123L193.98093 294.13123L193.98093 287.97498Q193.63718 288.3031 193.07468 288.63904Q192.51218 288.97498 192.05905 289.13123L192.05905 288.19373Q192.87155 287.81873 193.47311 287.27966Q194.07468 286.7406 194.32468 286.22498L194.94968 286.22498L194.94968 294.13123ZM197.12155 291.77185L197.12155 290.8031L200.0903 290.8031L200.0903 291.77185L197.12155 291.77185ZM204.41843 294.13123L203.44968 294.13123L203.44968 287.97498Q203.10593 288.3031 202.54343 288.63904Q201.98093 288.97498 201.5278 289.13123L201.5278 288.19373Q202.3403 287.81873 202.94186 287.27966Q203.54343 286.7406 203.79343 286.22498L204.41843 286.22498L204.41843 294.13123Z"
     id="path4490"
     fill-rule="nonzero"
     fill="#000000" />
  <path
     d="M365.3937 173.10236L365.3937 173.10236C365.3937 160.49113 375.61713 150.26772 388.22833 150.26772L388.22833 150.26772C394.2845 150.26772 400.09256 152.67351 404.37488 156.95583C408.6572 161.23816 411.063 167.04623 411.063 173.10236L411.063 173.10236C411.063 185.7136 400.83957 195.93701 388.22833 195.93701L388.22833 195.93701C375.61713 195.93701 365.3937 185.7136 365.3937 173.10236Z"
     id="path4492"
     stroke-linejoin="round"
     stroke-linecap="butt"
     stroke-width="2.0"
     stroke="#073763"
     fill-rule="nonzero"
     fill="#cfe2f3" />
  <path
     d="M270.55905 104.98425L270.55905 104.98425C270.55905 92.373024 280.78247 82.149605 293.3937 82.149605L293.3937 82.149605C299.44983 82.149605 305.2579 84.55539 309.54022 88.83772C313.82257 93.12005 316.22833 98.92813 316.22833 104.98425L316.22833 104.98425C316.22833 117.59548 306.0049 127.8189 293.3937 127.8189L293.3937 127.8189C280.78247 127.8189 270.55905 117.59548 270.55905 104.98425Z"
     id="path4494"
     stroke-linejoin="round"
     stroke-linecap="butt"
     stroke-width="2.0"
     stroke="#073763"
     fill-rule="nonzero"
     fill="#cfe2f3" />
  <path
     d="M270.55905 245.89502L270.55905 245.89502C270.55905 233.28378 280.78247 223.06036 293.3937 223.06036L293.3937 223.06036C299.44983 223.06036 305.2579 225.46616 309.54022 229.74847C313.82257 234.0308 316.22833 239.83888 316.22833 245.89502L316.22833 245.89502C316.22833 258.50623 306.0049 268.72964 293.3937 268.72964L293.3937 268.72964C280.78247 268.72964 270.55905 258.50623 270.55905 245.89502Z"
     id="path4496"
     stroke-linejoin="round"
     stroke-linecap="butt"
     stroke-width="2.0"
     stroke="#073763"
     fill-rule="nonzero"
     fill="#cfe2f3" />
  <path
     d="M221.50131 70.50131L261.22046 93.44406"
     id="path4498"
     stroke-linejoin="round"
     stroke-linecap="butt"
     stroke-width="2.0"
     stroke="#073763"
     fill-rule="evenodd" />
  <path
     d="M259.56815 96.30461L269.07974 97.98377L262.8728 90.58352Z"
     id="path4500"
     stroke-linecap="butt"
     stroke-width="2.0"
     stroke="#073763"
     fill-rule="evenodd"
     fill="#073763" />
  <path
     d="M222.0 142.0L260.77234 119.620834"
     id="path4502"
     stroke-linejoin="round"
     stroke-linecap="butt"
     stroke-width="2.0"
     stroke="#073763"
     fill-rule="evenodd" />
  <path
     d="M262.42374 122.48191L268.6331 115.08366L259.12094 116.75975Z"
     id="path4504"
     stroke-linecap="butt"
     stroke-width="2.0"
     stroke="#073763"
     fill-rule="evenodd"
     fill="#073763" />
  <path
     d="M221.50131 211.50131L260.24384 233.87761"
     id="path4506"
     stroke-linejoin="round"
     stroke-linecap="butt"
     stroke-width="2.0"
     stroke="#073763"
     fill-rule="evenodd" />
  <path
     d="M258.59164 236.73822L268.1033 238.41696L261.89603 231.01698Z"
     id="path4508"
     stroke-linecap="butt"
     stroke-width="2.0"
     stroke="#073763"
     fill-rule="evenodd"
     fill="#073763" />
  <path
     d="M221.50131 280.0L259.48752 258.06396"
     id="path4510"
     stroke-linejoin="round"
     stroke-linecap="butt"
     stroke-width="2.0"
     stroke="#073763"
     fill-rule="evenodd" />
  <path
     d="M261.13953 260.92468L267.34732 253.52513L257.83554 255.20322Z"
     id="path4512"
     stroke-linecap="butt"
     stroke-width="2.0"
     stroke="#073763"
     fill-rule="evenodd"
     fill="#073763" />
  <path
     d="M281.81558 102.98425L281.81558 95.10925L282.86246 95.10925L282.86246 98.34363L286.9562 98.34363L286.9562 95.10925L288.00308 95.10925L288.00308 102.98425L286.9562 102.98425L286.9562 99.2655L282.86246 99.2655L282.86246 102.98425L281.81558 102.98425ZM293.09683 102.28113Q292.54996 102.73425 292.05777 102.92175Q291.56558 103.10925 290.98746 103.10925Q290.04996 103.10925 289.54214 102.648315Q289.03433 102.18738 289.03433 101.48425Q289.03433 101.06238 289.22964 100.71863Q289.42496 100.37488 289.72964 100.16394Q290.03433 99.953 290.42496 99.84363Q290.7062 99.7655 291.28433 99.703Q292.4562 99.56238 293.00308 99.35925Q293.0187 99.17175 293.0187 99.10925Q293.0187 98.5155 292.73746 98.28113Q292.37808 97.953 291.6437 97.953Q290.9562 97.953 290.6359 98.18738Q290.31558 98.42175 290.15933 99.03113L289.2062 98.90613Q289.3312 98.29675 289.62808 97.92175Q289.92496 97.54675 290.48746 97.35144Q291.04996 97.15613 291.78433 97.15613Q292.5187 97.15613 292.97183 97.328Q293.42496 97.49988 293.6359 97.75769Q293.84683 98.0155 293.94058 98.40613Q293.98746 98.65613 293.98746 99.31238L293.98746 100.59363Q293.98746 101.93738 294.04996 102.29675Q294.11246 102.65613 294.29996 102.98425L293.28433 102.98425Q293.12808 102.68738 293.09683 102.28113ZM293.00308 100.12488Q292.48746 100.34363 291.42496 100.48425Q290.8312 100.578 290.58902 100.679565Q290.34683 100.78113 290.2062 100.992065Q290.06558 101.203 290.06558 101.453Q290.06558 101.84363 290.36246 102.10144Q290.65933 102.35925 291.22183 102.35925Q291.78433 102.35925 292.21402 102.10925Q292.6437 101.85925 292.86246 101.43738Q293.00308 101.10925 293.00308 100.46863L293.00308 100.12488ZM294.90933 101.28113L295.86246 101.12488Q295.94058 101.703 296.30777 102.00769Q296.67496 102.31238 297.3312 102.31238Q298.00308 102.31238 298.3234 102.04675Q298.6437 101.78113 298.6437 101.40613Q298.6437 101.078 298.36246 100.8905Q298.15933 100.7655 297.37808 100.56238Q296.31558 100.29675 295.90152 100.10144Q295.48746 99.90613 295.27652 99.56238Q295.06558 99.21863 295.06558 98.79675Q295.06558 98.40613 295.23746 98.085815Q295.40933 97.7655 295.72183 97.54675Q295.94058 97.37488 296.3312 97.2655Q296.72183 97.15613 297.15933 97.15613Q297.8312 97.15613 298.33902 97.34363Q298.84683 97.53113 299.08902 97.867065Q299.3312 98.203 299.42496 98.74988L298.48746 98.87488Q298.40933 98.43738 298.10464 98.19519Q297.79996 97.953 297.23746 97.953Q296.56558 97.953 296.28433 98.17175Q296.00308 98.3905 296.00308 98.68738Q296.00308 98.87488 296.11246 99.0155Q296.23746 99.17175 296.48746 99.28113Q296.62808 99.328 297.34683 99.53113Q298.36246 99.79675 298.7687 99.96863Q299.17496 100.1405 299.40933 100.47644Q299.6437 100.81238 299.6437 101.31238Q299.6437 101.79675 299.36246 102.21863Q299.0812 102.6405 298.54996 102.87488Q298.0187 103.10925 297.34683 103.10925Q296.23746 103.10925 295.65152 102.648315Q295.06558 102.18738 294.90933 101.28113ZM300.61246 102.98425L300.61246 95.10925L301.5812 95.10925L301.5812 97.93738Q302.2687 97.15613 303.29996 97.15613Q303.92496 97.15613 304.3937 97.40613Q304.86246 97.65613 305.06558 98.09363Q305.2687 98.53113 305.2687 99.37488L305.2687 102.98425L304.29996 102.98425L304.29996 99.37488Q304.29996 98.6405 303.98746 98.31238Q303.67496 97.98425 303.09683 97.98425Q302.65933 97.98425 302.28433 98.203Q301.90933 98.42175 301.74527 98.804565Q301.5812 99.18738 301.5812 99.85925L301.5812 102.98425L300.61246 102.98425Z"
     id="path4514"
     fill-rule="nonzero"
     fill="#000000" />
  <path
     d="M290.87808 111.09363Q290.87808 109.703 291.16714 108.85144Q291.4562 107.99988 292.02652 107.53894Q292.59683 107.078 293.4562 107.078Q294.0812 107.078 294.55777 107.335815Q295.03433 107.59363 295.34683 108.07019Q295.65933 108.54675 295.83902 109.242065Q296.0187 109.93738 296.0187 111.09363Q296.0187 112.48425 295.72964 113.335815Q295.44058 114.18738 294.87808 114.65613Q294.31558 115.12488 293.4562 115.12488Q292.31558 115.12488 291.65933 114.29675Q290.87808 113.31238 290.87808 111.09363ZM291.87808 111.09363Q291.87808 113.04675 292.3312 113.68738Q292.78433 114.328 293.4562 114.328Q294.11246 114.328 294.56558 113.679565Q295.0187 113.03113 295.0187 111.09363Q295.0187 109.15613 294.56558 108.5155Q294.11246 107.87488 293.44058 107.87488Q292.7687 107.87488 292.37808 108.43738Q291.87808 109.15613 291.87808 111.09363Z"
     id="path4516"
     fill-rule="nonzero"
     fill="#000000" />
  <path
     d="M281.81558 243.89502L281.81558 236.02002L282.86246 236.02002L282.86246 239.2544L286.9562 239.2544L286.9562 236.02002L288.00308 236.02002L288.00308 243.89502L286.9562 243.89502L286.9562 240.17627L282.86246 240.17627L282.86246 243.89502L281.81558 243.89502ZM293.09683 243.1919Q292.54996 243.64502 292.05777 243.83252Q291.56558 244.02002 290.98746 244.02002Q290.04996 244.02002 289.54214 243.55908Q289.03433 243.09814 289.03433 242.39502Q289.03433 241.97314 289.22964 241.6294Q289.42496 241.28564 289.72964 241.0747Q290.03433 240.86377 290.42496 240.7544Q290.7062 240.67627 291.28433 240.61377Q292.4562 240.47314 293.00308 240.27002Q293.0187 240.08252 293.0187 240.02002Q293.0187 239.42627 292.73746 239.1919Q292.37808 238.86377 291.6437 238.86377Q290.9562 238.86377 290.6359 239.09814Q290.31558 239.33252 290.15933 239.9419L289.2062 239.8169Q289.3312 239.20752 289.62808 238.83252Q289.92496 238.45752 290.48746 238.2622Q291.04996 238.0669 291.78433 238.0669Q292.5187 238.0669 292.97183 238.23877Q293.42496 238.41064 293.6359 238.66846Q293.84683 238.92627 293.94058 239.3169Q293.98746 239.5669 293.98746 240.22314L293.98746 241.5044Q293.98746 242.84814 294.04996 243.20752Q294.11246 243.5669 294.29996 243.89502L293.28433 243.89502Q293.12808 243.59814 293.09683 243.1919ZM293.00308 241.03564Q292.48746 241.2544 291.42496 241.39502Q290.8312 241.48877 290.58902 241.59033Q290.34683 241.6919 290.2062 241.90283Q290.06558 242.11377 290.06558 242.36377Q290.06558 242.7544 290.36246 243.0122Q290.65933 243.27002 291.22183 243.27002Q291.78433 243.27002 292.21402 243.02002Q292.6437 242.77002 292.86246 242.34814Q293.00308 242.02002 293.00308 241.3794L293.00308 241.03564ZM294.90933 242.1919L295.86246 242.03564Q295.94058 242.61377 296.30777 242.91846Q296.67496 243.22314 297.3312 243.22314Q298.00308 243.22314 298.3234 242.95752Q298.6437 242.6919 298.6437 242.3169Q298.6437 241.98877 298.36246 241.80127Q298.15933 241.67627 297.37808 241.47314Q296.31558 241.20752 295.90152 241.0122Q295.48746 240.8169 295.27652 240.47314Q295.06558 240.1294 295.06558 239.70752Q295.06558 239.3169 295.23746 238.99658Q295.40933 238.67627 295.72183 238.45752Q295.94058 238.28564 296.3312 238.17627Q296.72183 238.0669 297.15933 238.0669Q297.8312 238.0669 298.33902 238.2544Q298.84683 238.4419 299.08902 238.77783Q299.3312 239.11377 299.42496 239.66064L298.48746 239.78564Q298.40933 239.34814 298.10464 239.10596Q297.79996 238.86377 297.23746 238.86377Q296.56558 238.86377 296.28433 239.08252Q296.00308 239.30127 296.00308 239.59814Q296.00308 239.78564 296.11246 239.92627Q296.23746 240.08252 296.48746 240.1919Q296.62808 240.23877 297.34683 240.4419Q298.36246 240.70752 298.7687 240.8794Q299.17496 241.05127 299.40933 241.3872Q299.6437 241.72314 299.6437 242.22314Q299.6437 242.70752 299.36246 243.1294Q299.0812 243.55127 298.54996 243.78564Q298.0187 244.02002 297.34683 244.02002Q296.23746 244.02002 295.65152 243.55908Q295.06558 243.09814 294.90933 242.1919ZM300.61246 243.89502L300.61246 236.02002L301.5812 236.02002L301.5812 238.84814Q302.2687 238.0669 303.29996 238.0669Q303.92496 238.0669 304.3937 238.3169Q304.86246 238.5669 305.06558 239.0044Q305.2687 239.4419 305.2687 240.28564L305.2687 243.89502L304.29996 243.89502L304.29996 240.28564Q304.29996 239.55127 303.98746 239.22314Q303.67496 238.89502 303.09683 238.89502Q302.65933 238.89502 302.28433 239.11377Q301.90933 239.33252 301.74527 239.71533Q301.5812 240.09814 301.5812 240.77002L301.5812 243.89502L300.61246 243.89502Z"
     id="path4518"
     fill-rule="nonzero"
     fill="#000000" />
  <path
     d="M294.5187 255.89502L293.54996 255.89502L293.54996 249.73877Q293.2062 250.0669 292.6437 250.40283Q292.0812 250.73877 291.62808 250.89502L291.62808 249.95752Q292.44058 249.58252 293.04214 249.04346Q293.6437 248.5044 293.8937 247.98877L294.5187 247.98877L294.5187 255.89502Z"
     id="path4520"
     fill-rule="nonzero"
     fill="#000000" />
  <path
     d="M315.5013 113.50131L357.75616 155.7562"
     id="path4522"
     stroke-linejoin="round"
     stroke-linecap="butt"
     stroke-width="2.0"
     stroke="#073763"
     fill-rule="evenodd" />
  <path
     d="M355.42026 158.09209L364.174 162.17403L360.09207 153.42029Z"
     id="path4524"
     stroke-linecap="butt"
     stroke-width="2.0"
     stroke="#073763"
     fill-rule="evenodd"
     fill="#073763" />
  <path
     d="M316.0 239.0L359.7667 195.2333"
     id="path4526"
     stroke-linejoin="round"
     stroke-linecap="butt"
     stroke-width="2.0"
     stroke="#073763"
     fill-rule="evenodd" />
  <path
     d="M362.1026 197.56921L366.18454 188.81548L357.4308 192.89742Z"
     id="path4528"
     stroke-linecap="butt"
     stroke-width="2.0"
     stroke="#073763"
     fill-rule="evenodd"
     fill="#073763" />
  <path
     d="M381.9002 171.10236L381.9002 164.16486L379.30646 164.16486L379.30646 163.22736L385.54083 163.22736L385.54083 164.16486L382.93146 164.16486L382.93146 171.10236L381.9002 171.10236ZM385.91583 168.24298Q385.91583 166.66486 386.80646 165.89923Q387.54083 165.27423 388.60333 165.27423Q389.7752 165.27423 390.5174 166.03986Q391.25958 166.80548 391.25958 168.16486Q391.25958 169.27423 390.93146 169.90704Q390.60333 170.53986 389.97052 170.8836Q389.3377 171.22736 388.60333 171.22736Q387.4002 171.22736 386.65802 170.46173Q385.91583 169.6961 385.91583 168.24298ZM386.91583 168.24298Q386.91583 169.35236 387.3924 169.89142Q387.86896 170.43048 388.60333 170.43048Q389.32208 170.43048 389.79865 169.8836Q390.2752 169.33673 390.2752 168.21173Q390.2752 167.16486 389.79083 166.61798Q389.30646 166.0711 388.60333 166.0711Q387.86896 166.0711 387.3924 166.61017Q386.91583 167.14923 386.91583 168.24298ZM392.19708 173.28986L392.19708 165.39923L393.0877 165.39923L393.0877 166.1336Q393.4002 165.71173 393.79083 165.49298Q394.18146 165.27423 394.74396 165.27423Q395.4627 165.27423 396.0252 165.64923Q396.5877 166.02423 396.86896 166.70392Q397.1502 167.3836 397.1502 168.21173Q397.1502 169.08673 396.8377 169.78204Q396.5252 170.47736 395.92365 170.85236Q395.32208 171.22736 394.66583 171.22736Q394.18146 171.22736 393.79865 171.02423Q393.41583 170.8211 393.16583 170.5086L393.16583 173.28986L392.19708 173.28986ZM393.07208 168.28986Q393.07208 169.3836 393.5252 169.90704Q393.97833 170.43048 394.60333 170.43048Q395.24396 170.43048 395.7049 169.89142Q396.16583 169.35236 396.16583 168.1961Q396.16583 167.11798 395.72052 166.5711Q395.2752 166.02423 394.6502 166.02423Q394.0252 166.02423 393.54865 166.60236Q393.07208 167.18048 393.07208 168.28986Z"
     id="path4530"
     fill-rule="nonzero"
     fill="#000000" />
  <path
     d="M376.6502 183.10236L376.6502 175.22736L377.69708 175.22736L377.69708 178.46173L381.79083 178.46173L381.79083 175.22736L382.8377 175.22736L382.8377 183.10236L381.79083 183.10236L381.79083 179.3836L377.69708 179.3836L377.69708 183.10236L376.6502 183.10236ZM387.93146 182.39923Q387.38458 182.85236 386.8924 183.03986Q386.4002 183.22736 385.82208 183.22736Q384.88458 183.22736 384.37677 182.76642Q383.86896 182.30548 383.86896 181.60236Q383.86896 181.18048 384.06427 180.83673Q384.25958 180.49298 384.56427 180.28204Q384.86896 180.0711 385.25958 179.96173Q385.54083 179.8836 386.11896 179.8211Q387.29083 179.68048 387.8377 179.47736Q387.85333 179.28986 387.85333 179.22736Q387.85333 178.6336 387.57208 178.39923Q387.2127 178.0711 386.47833 178.0711Q385.79083 178.0711 385.47052 178.30548Q385.1502 178.53986 384.99396 179.14923L384.04083 179.02423Q384.16583 178.41486 384.4627 178.03986Q384.75958 177.66486 385.32208 177.46954Q385.88458 177.27423 386.61896 177.27423Q387.35333 177.27423 387.80646 177.4461Q388.25958 177.61798 388.47052 177.8758Q388.68146 178.1336 388.7752 178.52423Q388.82208 178.77423 388.82208 179.43048L388.82208 180.71173Q388.82208 182.05548 388.88458 182.41486Q388.94708 182.77423 389.13458 183.10236L388.11896 183.10236Q387.9627 182.80548 387.93146 182.39923ZM387.8377 180.24298Q387.32208 180.46173 386.25958 180.60236Q385.66583 180.6961 385.42365 180.79767Q385.18146 180.89923 385.04083 181.11017Q384.9002 181.3211 384.9002 181.5711Q384.9002 181.96173 385.19708 182.21954Q385.49396 182.47736 386.05646 182.47736Q386.61896 182.47736 387.04865 182.22736Q387.47833 181.97736 387.69708 181.55548Q387.8377 181.22736 387.8377 180.58673L387.8377 180.24298ZM389.74396 181.39923L390.69708 181.24298Q390.7752 181.8211 391.1424 182.1258Q391.50958 182.43048 392.16583 182.43048Q392.8377 182.43048 393.15802 182.16486Q393.47833 181.89923 393.47833 181.52423Q393.47833 181.1961 393.19708 181.0086Q392.99396 180.8836 392.2127 180.68048Q391.1502 180.41486 390.73615 180.21954Q390.32208 180.02423 390.11115 179.68048Q389.9002 179.33673 389.9002 178.91486Q389.9002 178.52423 390.07208 178.20392Q390.24396 177.8836 390.55646 177.66486Q390.7752 177.49298 391.16583 177.3836Q391.55646 177.27423 391.99396 177.27423Q392.66583 177.27423 393.17365 177.46173Q393.68146 177.64923 393.92365 177.98517Q394.16583 178.3211 394.25958 178.86798L393.32208 178.99298Q393.24396 178.55548 392.93927 178.3133Q392.63458 178.0711 392.07208 178.0711Q391.4002 178.0711 391.11896 178.28986Q390.8377 178.5086 390.8377 178.80548Q390.8377 178.99298 390.94708 179.1336Q391.07208 179.28986 391.32208 179.39923Q391.4627 179.4461 392.18146 179.64923Q393.19708 179.91486 393.60333 180.08673Q394.00958 180.2586 394.24396 180.59454Q394.47833 180.93048 394.47833 181.43048Q394.47833 181.91486 394.19708 182.33673Q393.91583 182.7586 393.38458 182.99298Q392.85333 183.22736 392.18146 183.22736Q391.07208 183.22736 390.48615 182.76642Q389.9002 182.30548 389.74396 181.39923ZM395.44708 183.10236L395.44708 175.22736L396.41583 175.22736L396.41583 178.05548Q397.10333 177.27423 398.13458 177.27423Q398.75958 177.27423 399.22833 177.52423Q399.69708 177.77423 399.9002 178.21173Q400.10333 178.64923 400.10333 179.49298L400.10333 183.10236L399.13458 183.10236L399.13458 179.49298Q399.13458 178.7586 398.82208 178.43048Q398.50958 178.10236 397.93146 178.10236Q397.49396 178.10236 397.11896 178.3211Q396.74396 178.53986 396.5799 178.92267Q396.41583 179.30548 396.41583 179.97736L396.41583 183.10236L395.44708 183.10236Z"
     id="path4532"
     fill-rule="nonzero"
     fill="#000000" />
  <rect
     style="fill:none;stroke:none;stroke-width:0;stroke-miterlimit:4;stroke-opacity:1;stroke-dasharray:none;stroke-dashoffset:0"
     id="rect4542"
     width="409.88226"
     height="287.99622"
     x="10.786375"
     y="30.75066"
     ry="0" />
</svg>
